<?xml version="1.0" encoding="utf-8"?>
<!-- Generator: Adobe Illustrator 16.0.3, SVG Export Plug-In . SVG Version: 6.00 Build 0)  -->
<!DOCTYPE svg PUBLIC "-//W3C//DTD SVG 1.1//EN" "http://www.w3.org/Graphics/SVG/1.1/DTD/svg11.dtd">
<svg version="1.1" id="Capa_1" xmlns="http://www.w3.org/2000/svg" xmlns:xlink="http://www.w3.org/1999/xlink" x="0px" y="0px"
	 width="202.488px" height="196.976px" viewBox="0 0 202.488 196.976" enable-background="new 0 0 202.488 196.976"
	 xml:space="preserve">
<path fill-rule="evenodd" clip-rule="evenodd" fill="#010101" d="M4,1c61.658,0,123.318,0,184.977,0
	c1.178,1.227,1.314,2.767,1.32,4.349c0.015,0.76,0,1.522-0.021,2.283c0.006,0.759-0.008,1.518-0.013,2.28
	c0.029,0.522,0.028,1.042,0.026,1.564c0.028,0.821,0.041,1.639,0.063,2.462c0.041,0.897,0.035,1.789,0.042,2.689
	c0.02,51.827,0.01,103.645,0.01,155.461c0,1.999,0.034,3.999-0.12,5.995c-0.196,2.543-1.614,3.893-4.067,4.292
	c-1.156,0.188-2.318,0.263-3.484,0.263c-56.315-0.024-112.632,0.159-168.941-0.072c-0.895-0.116-1.802-0.174-2.705-0.2
	c-0.576,0.003-1.157-0.015-1.737-0.033c-0.581,0.008-1.161-0.016-1.743-0.045c-0.898-0.029-1.783-0.13-2.637-0.441
	c-0.938-0.408-1.515-1.062-1.453-2.148C3.511,123.617,3.513,67.542,3.513,11.466C3.769,7.983,2.976,4.449,4,1z"/>
<path fill-rule="evenodd" clip-rule="evenodd" fill="#FEFEFE" d="M3.867,10.997l-0.434-0.002L3,10.999C3.488,7.682,1.901,4.157,4,1
	C3.955,4.333,3.911,7.665,3.867,10.997z"/>
<path fill-rule="evenodd" clip-rule="evenodd" fill="#444444" d="M11.906,181.119c35.634-0.04,71.269-0.089,106.902-0.118
	c21.648-0.017,43.299-0.112,64.945,0.092c4.18,0.04,5.271-1.162,5.261-5.298c-0.137-51.79-0.092-103.581-0.082-155.372
	c0-1.828,0.115-3.655,0.176-5.483c2.422,0.111,2.906,1.871,3.154,3.775c0.215,1.655,0.14,3.327,0.14,4.992
	c0.005,51.472,0.005,102.944,0.001,154.416c0,1.665,0.033,3.333-0.104,4.995c-0.326,3.956-2.496,6.006-6.444,6.214
	c-1.498,0.079-2.997,0.072-4.496,0.072c-53.138,0.003-106.275,0.003-159.413-0.002c-1.832,0-3.676,0.106-5.49-0.159
	C11.732,188.551,10.267,185.896,11.906,181.119z"/>
<path fill-rule="evenodd" clip-rule="evenodd" fill="#272542" d="M96.641,170.021c-27.49,0-54.983-0.103-82.474,0.1
	c-4.621,0.034-6.28-0.952-6.261-5.959c0.187-48.65,0.168-97.303,0.022-145.955c-0.015-4.734,1.294-6.328,6.184-6.315
	c55.149,0.149,110.3,0.147,165.449-0.006c4.452-0.013,5.589,1.243,5.576,5.617c-0.149,48.984-0.147,97.969-0.006,146.953
	c0.012,4.295-0.984,5.708-5.517,5.673C151.958,169.914,124.299,170.021,96.641,170.021z"/>
<path fill-rule="evenodd" clip-rule="evenodd" fill="#CBCBCB" d="M189.112,7.966c5.902,1.199,7.848,3.279,7.851,8.972
	c0.031,55.954,0.031,111.908,0.003,167.862c-0.003,6.51-2.841,9.18-9.628,9.182c-56.953,0.019-113.906,0.016-170.859,0.007
	c-8.687-0.001-10.405-2.128-10.52-12.842c0.673,0.008,1.346,0.017,2.019,0.024c0.605,0.599,1.008,1.304,1.2,2.143
	c1.646,7.204,1.649,7.229,9.14,7.23c55.468,0.011,110.935,0.011,166.402,0c8.206-0.002,8.822-0.615,8.823-8.807
	c0.012-53.802-0.03-107.604,0.077-161.405c0.008-4.317-0.76-7.865-4.492-10.351C189.123,9.31,189.117,8.638,189.112,7.966z"/>
<path fill-rule="evenodd" clip-rule="evenodd" fill="#787878" d="M11.906,181.119c0.396,6.311,0.918,6.847,7.082,6.848
	c54.974,0.009,109.947,0.009,164.92,0c6.402-0.001,7.049-0.678,7.049-7.288c0.006-53.141,0.01-106.282-0.018-159.422
	c-0.002-2.237,0.733-4.782-1.831-6.316c0.01-0.652,0.019-1.305,0.027-1.957c2.721-0.993,3.525,0.914,4.264,2.854
	c0.792,2.081,0.566,4.273,0.566,6.429c0.011,52.444,0.011,104.889-0.001,157.333c0,1.99,0.113,3.984-0.368,5.961
	c-0.813,3.335-2.842,5.163-6.29,5.363c-0.998,0.058-1.997,0.048-2.996,0.048c-55.274,0.003-110.55,0.012-165.824-0.009
	c-6.802-0.002-9.619-2.491-9.312-8.078c0.036-0.673,0.386-1.267,0.812-1.794C10.626,181.101,11.267,181.11,11.906,181.119z"/>
<path fill-rule="evenodd" clip-rule="evenodd" fill="#B8B8B8" d="M189.128,9.981c5.353,0.123,5.901,3.686,5.895,7.917
	c-0.048,31.151-0.024,62.303-0.024,93.454c0,24.154,0.008,48.31-0.007,72.464c-0.005,6.861-1.306,8.179-8.122,8.181
	c-55.972,0.011-111.944,0.007-167.916,0.007c-10.689,0-10.969-0.277-10.976-10.833c0.314-0.16,0.636-0.176,0.965-0.048
	c0.576,0.697,0.444,1.552,0.568,2.363c0.864,5.645,2.415,6.99,8.274,6.994c27.461,0.021,54.922,0.01,82.384,0.01
	c28.126,0,56.253,0.005,84.38-0.004c6.947-0.003,8.923-1.89,8.926-8.85c0.026-53.757-0.006-107.515,0.057-161.272
	c0.005-3.974-1.297-7.056-4.455-9.395C189.094,10.64,189.11,10.311,189.128,9.981z"/>
<path fill-rule="evenodd" clip-rule="evenodd" fill="#838383" d="M189.076,10.97c3.863,1.447,4.914,4.385,4.91,8.289
	c-0.061,54.427-0.033,108.854-0.052,163.281c-0.002,6.442-1.924,8.413-8.273,8.416c-56.091,0.021-112.183,0.021-168.272,0
	c-6.794-0.003-8.177-1.693-8.446-9.833c0.348-0.011,0.696-0.021,1.044-0.032c0.66,7.658,1.938,8.868,9.48,8.869
	c54.647,0.004,109.296,0.004,163.944,0c7.763,0,9.527-1.642,9.531-9.281c0.026-53.148,0.031-106.296-0.029-159.445
	c-0.003-3.187,0.393-6.842-3.778-8.25C189.115,12.313,189.096,11.641,189.076,10.97z"/>
<path fill-rule="evenodd" clip-rule="evenodd" fill="#2D294A" d="M182.988,168.961c-55.654,0.005-111.31-0.011-166.964,0.057
	c-4.18,0.005-7.155-0.354-5.16-5.765c0.489-1.326,0.132-2.972,0.132-4.471c0.003-45.823,0.002-91.647,0.003-137.47
	c0.001-7.305,0.005-7.313,7.021-7.313c54.989,0.002,109.978,0.007,164.966,0.012c0.824,1.392,0.461,2.927,0.461,4.394
	c0.021,48.72,0.021,97.44,0,146.161C183.447,166.033,183.809,167.567,182.988,168.961z"/>
<path fill-rule="evenodd" clip-rule="evenodd" fill="#322D52" d="M182.988,168.961c0-51.65-0.002-103.3-0.002-154.951
	c1.62,1.479,0.963,3.431,0.964,5.177c0.035,48.199,0.035,96.397,0,144.596C183.948,165.529,184.607,167.481,182.988,168.961z"/>
<path fill-rule="evenodd" clip-rule="evenodd" fill="#FBFBFC" d="M157.93,101.836c-4.718,2.599-9.816,2.364-14.932,2.01
	c-4.164-0.835-4.713-3.634-3.903-7.173c0.515-1.494,1.757-2.358,2.894-3.315c0.563-0.451,1.19-0.778,1.902-0.923
	c3.134,0.371,5.157-2.812,8.243-2.601c1.684,2.496,3.413-1.708,5.107,0.023c1.061,1.348,1.199,2.958,1.311,4.578
	c-0.354,1.871-0.723,3.747,0.64,5.425C159.463,100.962,158.863,101.506,157.93,101.836z"/>
<path fill-rule="evenodd" clip-rule="evenodd" fill="#F9F9FA" d="M92.027,29.175c7.014-2.348,13.617-2.666,19.623,2.85
	c1.377,1.266,0.738,3.144,2.231,4.027c0.958,1.092,1.214,2.3,0.618,3.652c-1.012,1.225-2.135,0.941-3.287,0.245
	c-1.163-0.801-1.617-2.586-3.441-2.485c-1.721-0.027-3.438-0.066-4.879,1.134c-0.443,0.195-0.9,0.313-1.376,0.387
	C96.194,38.023,92.668,34.374,92.027,29.175z"/>
<path fill-rule="evenodd" clip-rule="evenodd" fill="#595670" d="M47.88,75.928c1.543-1.449,3.462-0.875,5.228-0.888
	c10.95-0.082,21.901-0.094,32.852-0.129c0.508,1.124-0.366,1.556-1.037,2.092c-1.157,0.622-1.934,1.667-2.819,2.593
	c-2.546,1.832-3.249,5.434-6.409,6.677c-2.441-1.631-4.956-3.227-3.409-6.845c0.681-1.031,1.844-1.301,3.089-1.896
	c-2.011-0.446-3.793-0.365-5.559,0.165c-3.624,4.484-4.965,4.615-12.559,1.271C54.478,76.88,50.563,78.293,47.88,75.928z"/>
<path fill-rule="evenodd" clip-rule="evenodd" fill="#636079" d="M40.85,79.925c0.802-1.246,1.756-2.328,3.158-2.927
	c1.103-0.421,2.249-0.19,3.375-0.212c3.919-0.076,4.933,1.073,4.309,4.928c-0.248,1.54-1.429,3.09,0.185,4.543
	c2.135,1.551,2.999,3.589,2.391,6.198c-0.086,1.01-0.271,1.994-0.682,2.928c-0.945,1.732-2.189,2.854-4.333,2.083
	c-1.321-1.917-1.207-5.095-4.725-5.125c-0.824-0.007-1.252-1.249-0.885-1.976c1.126-2.225,0.064-4.5,0.355-6.72
	C44.565,81.04,41.64,81.379,40.85,79.925z"/>
<path fill-rule="evenodd" clip-rule="evenodd" fill="#54516C" d="M113.961,39.992c-0.026-1.313-0.053-2.627-0.079-3.94
	c4.214,4.171,2.169,9.423,1.686,13.952c-0.778,7.287-0.189,14.525-0.597,21.767c-0.184,3.259,1.903,3.254,4.2,3.246
	c7.94-0.029,15.88-0.007,23.819-0.004c0.3,0.455,0.28,0.896-0.058,1.327c-0.406,0.312-0.857,0.53-1.352,0.666
	c-0.745,0.188-1.504,0.257-2.269,0.281c-1.787,0.018-3.574,0.104-5.362,0.069c-1.546,0.013-3.091,0.049-4.637-0.003
	c-0.771,0.009-1.54,0.002-2.31-0.011c-1.272-0.013-2.544-0.022-3.815-0.022c-1.012,0.008-2.024,0.026-3.036-0.008
	c-0.766,0.014-1.53,0.004-2.297-0.021c-1.045-0.023-2.074-0.128-3.054-0.529c-1.327-0.64-1.796-1.821-2.002-3.168
	c-0.08-0.502-0.108-1.013-0.11-1.523c-0.013-0.993,0.002-1.99,0.003-2.985c-0.021-0.728-0.016-1.458-0.014-2.188
	c-0.032-0.962-0.06-1.923-0.104-2.885c-0.799-2.906,0.214-5.788,0.1-8.686c-0.014-0.737-0.003-1.474,0.009-2.211
	c-0.016-0.749-0.013-1.497-0.015-2.248c-0.028-0.513-0.026-1.022-0.02-1.535c0.012-1.573-0.02-3.145-0.021-4.717
	C112.608,42.939,112.746,41.31,113.961,39.992z"/>
<path fill-rule="evenodd" clip-rule="evenodd" fill="#A8A6B4" d="M86.121,38.954c0.004-1,0.008-2,0.012-3
	c2.607-2.464,5.106-2.323,7.04,0.681c2.514,3.904,5.764,5.158,10.116,3.509c3.733-0.173,5.765,2.601,8.18,4.718
	c0.509,1.256,0.43,2.418-0.565,3.425c-1.627,1.293-3.897,0.901-5.563,2.123c-0.06,0.45-0.286,0.774-0.661,1.011
	c-0.434,0.128-0.863,0.152-1.304,0.063c-3.897-2.105,0.546-3.963,0.215-6.022c-1.908-0.966-3.793,0.11-5.67,0.017
	c-1.489-0.023-2.69-0.678-3.725-1.696C91.96,41.417,89.834,38.863,86.121,38.954z"/>
<path fill-rule="evenodd" clip-rule="evenodd" fill="#625F77" d="M115.05,104.073c-0.027,9.745-0.035,19.49-0.101,29.235
	c-0.011,1.6,0.47,3.343-0.893,4.705c-2.356,1.78-4.701,1.457-7.042-0.035c-1.091-0.875-1.762-2.021-2.119-3.361
	c-0.239-1.243-0.638-2.492-0.053-3.749c1.193-0.829,2.287-0.362,3.369,0.253c1.516,1.023,3.372,1.608,4.383,3.25
	c0.507-0.908,0.015-1.831,0.133-2.723c-0.021-1.132-0.021-2.256-0.028-3.382c-0.025-0.703-0.014-1.405-0.006-2.108
	c-0.023-0.472-0.013-0.942-0.001-1.414c0.022-1.178,0.033-2.355,0.028-3.532c-0.023-0.71-0.011-1.419,0.003-2.128
	c-0.019-0.715-0.008-1.429-0.002-2.144c-0.024-0.725-0.026-1.448-0.035-2.175c-0.03-0.494-0.029-0.985-0.026-1.479
	c0.044-2.014-0.061-4.026,0.031-6.041c0.146-1.307,0.269-2.63,1.598-3.376C114.542,103.938,114.796,104.005,115.05,104.073z"/>
<path fill-rule="evenodd" clip-rule="evenodd" fill="#CDCCD3" d="M139.964,95.982c0.077,2.981-0.507,6.218,3.034,7.863
	c-3.669,0.006-7.338,0.012-11.008,0.019c-0.947-0.863-2.854,0.295-3.306-1.396c-0.468-1.753,1.118-2.053,2.246-2.594
	c0.909-0.437,1.435-1.278,2.103-1.97c0.436-0.515,0.916-0.984,1.429-1.422c0.704-0.589,1.476-1.057,2.371-1.299
	c0.448-0.104,0.902-0.138,1.362-0.119C138.899,95.148,139.521,95.395,139.964,95.982z"/>
<path fill-rule="evenodd" clip-rule="evenodd" fill="#605D76" d="M50.993,86.99c-1.654-0.782-1.873-1.809-1.251-3.616
	c1.905-5.539,1.793-5.567-4.336-5.877c-0.473-0.024-0.933-0.326-1.398-0.499c1.001-1.408,2.522-0.93,3.873-1.069
	c3.451,0.287,7.179-0.774,10.111,2.062c0.918,0.687,1.906,1.295,2.599,2.237c1.004,1.368,0.155,2.719-0.986,2.298
	C54.893,80.791,53.375,84.606,50.993,86.99z"/>
<path fill-rule="evenodd" clip-rule="evenodd" fill="#848295" d="M126.026,103.88c-2.333,0.005-4.666,0.01-6.999,0.015
	c1.612-2.27-1.149-3.987-0.779-6.103c1.279-5.847,1.37-5.902,7.325-4.5c1.71,1.271,2.096,3.264,2.771,5.1
	c0.001,0.491-0.143,0.944-0.396,1.357c-0.287,0.362-0.635,0.668-1.022,0.92c-0.523,0.597-2.79,0.453-0.862,2.095
	C126.302,103.15,126.286,103.521,126.026,103.88z"/>
<path fill-rule="evenodd" clip-rule="evenodd" fill="#636078" d="M86.058,67.981c0.004-4.333,0.009-8.667,0.014-13
	c1.488-1.512,3.238-2.62,5.302-3.107c1.416-0.335,2.992-0.663,3.092,1.631c-0.675,1.589-2.22,2.202-3.459,3.196
	c-1.503,1.206-2.992,2.707-0.615,4.539c3.179-0.667,1.893-3.609,2.793-5.423c0.238-0.437,0.554-0.805,0.938-1.12
	c0.54-0.089,0.981,0.076,1.335,0.491c2.303,7.844,2.171,8.086-6.228,11.447C88.207,67.161,87.477,68.392,86.058,67.981z"/>
<path fill-rule="evenodd" clip-rule="evenodd" fill="#4F4C67" d="M86.041,143.005c-0.002-2.339-0.004-4.678-0.006-7.016
	c1.597-1.422,3.948-0.908,5.598-2.201c0.397-0.253,0.827-0.412,1.285-0.509c0.992-0.174,1.953,0.195,2.939,0.147
	c1.281-0.061,2.893-0.524,3.398,1.105c0.599,1.93-1.098,2.44-2.451,3.03c-2.779,1.139-3.888,4.227-6.479,5.586
	c-0.587,0.339-1.214,0.48-1.884,0.356C87.854,142.342,86.791,143.423,86.041,143.005z"/>
<path fill-rule="evenodd" clip-rule="evenodd" fill="#C7C6CF" d="M102.993,41.008c-4.381,2.971-7.753,1.228-10.005-2.711
	c-1.782-3.119-3.88-3.582-6.855-2.342c0.67-1.469,0.983-3.168,2.609-4.015c3.458-1.462,4.831,1.439,6.136,3.402
	c2.049,3.082,4.596,3.855,7.943,3.123c1.738-0.479,3.519-1.115,4.366,1.323C106.127,41.354,104.143,39.743,102.993,41.008z"/>
<path fill-rule="evenodd" clip-rule="evenodd" fill="#827F93" d="M75.989,103.869c-1.329,0.005-2.658,0.009-3.987,0.014
	c-0.717-1.154-1.892-0.492-2.846-0.719c-0.846-0.765-0.728-1.573-0.125-2.412c2.835-0.657,3.816-4.271,6.992-4.396
	c2.851,0.82,5.813,1.167,8.658,2.003c0.414,0.261,0.728,0.62,0.959,1.05c0.654,3.209-0.282,4.657-3.816,3.705
	C79.854,102.584,77.801,102.596,75.989,103.869z"/>
<path fill-rule="evenodd" clip-rule="evenodd" fill="#807E91" d="M86.051,127.95c-0.002-2.659-0.004-5.317-0.006-7.975
	c0.377-0.306,0.789-0.364,1.236-0.182c2.723,2.499,5.685,1.469,8.641,0.571c0.472,0.042,0.895,0.207,1.282,0.475
	c0.422,0.602,0.53,1.271,0.452,1.982c-0.378,2.595-2.212,4.376-3.592,6.414c-0.393,0.235-0.818,0.372-1.271,0.423
	C90.618,128.813,87.77,130.603,86.051,127.95z"/>
<path fill-rule="evenodd" clip-rule="evenodd" fill="#5D5A73" d="M106.987,136.982c2.201,1.405,4.682,0.895,7.069,1.031
	c-0.013,0.653-0.025,1.306-0.038,1.959c-1.673,1.098-1.646,3.035-2.284,4.646c-2.144,2.938-5.282,1.916-8.139,2.044
	c-0.443-0.175-0.804-0.458-1.102-0.827c-0.352-0.621-0.513-1.295-0.554-2.003c-0.146-3.278,2.663-4.564,4.426-6.561
	C106.571,137.172,106.779,137.077,106.987,136.982z"/>
<path fill-rule="evenodd" clip-rule="evenodd" fill="#C7C6CF" d="M157.909,94.957c-0.981-1.506-0.96-3.211-0.984-4.909
	c-0.224-0.202-0.334-0.429-0.331-0.681c0.004-0.266,0.033-0.397,0.087-0.397c0.541-0.809,1.643-1.109,1.939-2.143
	c0.253-1.007,0.253-2.067,0.688-3.031c0.377-0.593,0.804-1.074,1.603-0.723c1.38,4.652,1.962,9.311,0.117,13.988
	C159.564,96.989,157.78,97.391,157.909,94.957z"/>
<path fill-rule="evenodd" clip-rule="evenodd" fill="#5A5771" d="M86.051,127.95c2.18,1.194,4.861-0.951,6.919,1.043
	c2.285,1.009,4.718-0.232,7.03,0.458c0.654,0.337,1.138,0.835,1.463,1.492c0.229,0.713,0.19,1.402-0.181,2.061
	c-3.049,0.78-6.292-0.273-9.292,0.98v0.001c-1.899-0.904-3.643-2.267-5.935-2.018C86.054,130.628,86.053,129.29,86.051,127.95z"/>
<path fill-rule="evenodd" clip-rule="evenodd" fill="#67657C" d="M84.028,76.024c0.83-0.047,1.575-0.24,1.931-1.111
	c0.021-0.321,0.06-0.64,0.117-0.955c1.629-1.403-0.042-5.92,4.407-4.667c0.636,0.937,0.796,1.999,0.836,3.096
	c0.234,3.984-2.354,7.347-2.458,11.298c-0.037,1.409-1.379,2.102-2.873,2.004c-0.501-0.088-0.928-0.33-1.267-0.711
	C85.83,81.896,83.864,79.043,84.028,76.024z"/>
<path fill-rule="evenodd" clip-rule="evenodd" fill="#726F85" d="M160.911,83.074c-0.303,0.313-0.606,0.625-0.909,0.937
	c-1.213,1.23-2.296,2.649-4.191,2.89c-1.26,0.076-2.452-0.009-3.057-1.384c-0.037-0.659,0.597-0.877,0.88-1.327
	c-0.438-0.267-0.822,0.156-1.262,0.092c-1.183-0.652-1.368-1.718-1.259-2.912c0.324-1.785,1.941-2.449,3.066-3.543
	c0.518-0.462,1.103-0.787,1.805-0.858C157.257,79.302,161.151,79.52,160.911,83.074z"/>
<path fill-rule="evenodd" clip-rule="evenodd" fill="#5F5C75" d="M106.051,151.021c-4.855,1.692-9.588,1.701-14.122-1.025
	c0.589-1.095,1.323-2.113,1.726-3.312c0.611-0.994,1.393-1.785,2.532-2.161c0.468-0.085,0.936-0.097,1.407-0.053
	c1.835,0.335,3.856-0.001,5.373,1.483l0.021,0.027c0.33,0.319,0.492,0.705,0.468,1.169c-0.134,0.894-0.404,1.742-0.842,2.536
	c-0.271,0.374-0.636,0.614-1.077,0.742c-1,0.095-1.877-0.303-3.198-0.892c1.663,0.926,2.936,1.188,4.307,0.626
	C103.94,149.829,105.125,149.913,106.051,151.021z"/>
<path fill-rule="evenodd" clip-rule="evenodd" fill="#EEEEF0" d="M102.011,39.045c-3.522,1.231-6.186,0.315-8.04-3.024
	c-1.143-2.057-2.607-3.85-5.229-4.082c0.872-1.186,1.695-2.431,3.285-2.764c2.645,3.706,4.312,8.513,9.962,8.825
	c0.354,0.226,0.476,0.455,0.364,0.689C102.241,38.927,102.127,39.045,102.011,39.045z"/>
<path fill-rule="evenodd" clip-rule="evenodd" fill="#A2A0AF" d="M86.146,114.954c-0.01-1.008-0.02-2.016-0.03-3.024
	c1.672-1.531,3.753-1.198,5.743-1.279c0.961-0.032,1.921-0.106,2.881-0.22c0.488-0.025,0.96,0.06,1.42,0.225
	c0.643,0.407,1.085,0.953,1.18,1.735c-0.352,1.942-1.956,2.64-3.435,3.47C91.104,117.435,88.257,119.303,86.146,114.954z"/>
<path fill-rule="evenodd" clip-rule="evenodd" fill="#838193" d="M55.961,103.896c-1.993-0.01-3.986-0.02-5.98-0.029
	c-1.083-1.739-1.396-3.664-1.362-5.676c0.281-0.411,0.673-0.625,1.162-0.677c1.903,0.033,3.891-0.818,5.656,0.559
	c1.918,1.203,4.721,2.115,1.72,4.99c-0.189,0.454-0.731-0.546-0.878,0.189c0.006-0.005,0.043,0.418,0.043,0.418L55.961,103.896z"/>
<path fill-rule="evenodd" clip-rule="evenodd" fill="#8B899B" d="M49.001,98.025c0.806,1.866,1.597,3.735,0.979,5.841
	c-0.995-0.001-1.99-0.002-2.986-0.002c-0.418-2.73-0.817-5.472-4.054-6.428c-1.146-1.067-1.749-2.34-1.495-3.939
	c0.181-0.479,0.508-0.829,0.957-1.069C46.506,92.046,48.003,94.741,49.001,98.025z"/>
<path fill-rule="evenodd" clip-rule="evenodd" fill="#918FA0" d="M94.969,43.021c1.006,0.648,2.01,1.297,3.016,1.944
	c0.065,0.195,0.132,0.39,0.198,0.585c-0.383,0.906-1.132,1.088-2.007,1.025c-0.775-0.137-1.537-0.362-2.332-0.403
	c-0.398,0.023-0.794,0.029-1.191,0.052c-1.446,0.188-2.888,0.286-4.325-0.055c-0.869-0.167-1.653-0.487-2.194-1.235
	c-0.006-1.33-0.011-2.661-0.016-3.991c0.754-1.474,2.073-2.05,3.188-0.855C90.906,41.804,93.228,41.788,94.969,43.021z"/>
<path fill-rule="evenodd" clip-rule="evenodd" fill="#7A778B" d="M38.126,88.001c-0.407-2.607,0.219-4.952,1.797-7.053
	c0.576-0.474,1.236-0.455,1.913-0.328c1.169,0.56,1.674,1.52,1.153,2.691c-0.646,1.45-0.05,2.386,0.963,3.28
	c1.468,2.75-1.231,4.214-1.939,6.295l-0.061,0.239c-0.428,0.215-0.836,0.184-1.228-0.09C39.437,91.577,40.193,89.061,38.126,88.001z
	"/>
<path fill-rule="evenodd" clip-rule="evenodd" fill="#9391A0" d="M75.989,103.869c-0.264-0.734-0.971-1.381-0.454-2.271
	c2.084,2.619,4.813-3.09,7.402,0.791c1.107,1.66,1.941-0.964,2.058-2.396c0.793-0.602,0.209-2.899,2.319-1.88
	c1.094,1.746,0.692,3.417-0.248,5.065c-0.302,0.433-0.699,0.749-1.186,0.954C82.584,104.044,79.286,103.957,75.989,103.869z"/>
<path fill-rule="evenodd" clip-rule="evenodd" fill="#54516B" d="M86.056,131.968c1.904,0.153,2.696-1.728,4.278-2.366
	c1.468,1.12-1.081,3.812,1.656,4.384c-0.624,4.713-4.004,1.235-5.955,2.003C86.042,134.648,86.049,133.309,86.056,131.968z"/>
<path fill-rule="evenodd" clip-rule="evenodd" fill="#69667E" d="M93.989,53.992c-0.604-2.829-2.459-0.966-3.395-0.611
	c-1.495,0.567-2.704,1.889-4.524,1.601c0.004-1.669,0.008-3.337,0.012-5.006c0.36-0.311,0.779-0.433,1.249-0.402
	c1.644,0.494,3.213-0.19,4.819-0.282c2.107-0.119,3.319,1.06,3.757,3.088c0.075,1.007-0.072,1.937-0.921,2.617
	c-0.331-0.002-0.662-0.005-0.993-0.007c-0.311-0.221-0.414-0.441-0.312-0.663C93.783,54.104,93.886,53.992,93.989,53.992z"/>
<path fill-rule="evenodd" clip-rule="evenodd" fill="#BAB8C3" d="M85.881,104.132c0.044-0.356,0.088-0.712,0.132-1.067
	c3.021-1.421,6.162-3.982,8.531,0.881c-0.002,1.511-2.03,1.801-2.011,3.333c-1.171,2.007-2.91,1.349-4.59,0.979
	c-1.102-0.804-0.799-2.389-1.806-3.249C85.996,104.732,85.91,104.44,85.881,104.132z"/>
<path fill-rule="evenodd" clip-rule="evenodd" fill="#6E6B81" d="M55.961,103.896c0.021-0.303,0.031-0.606,0.029-0.91l0.001-0.001
	c4.251-2.501-0.349-2.737-1.019-3.979c0.159-0.179,0.318-0.358,0.476-0.54c1.482-0.844,3.17-1.075,4.762-1.601
	c1.885,0.093,4.477-2.165,5.287,1.56c-0.218,1.021-1.006,1.5-1.837,1.939c-0.396,0.184-0.815,0.313-1.232,0.417
	c-0.541,0.18-1.035,0.421-1.201,1.036c-0.04,0.7,0.273,1.445-0.248,2.078C59.306,103.895,57.633,103.896,55.961,103.896z"/>
<path fill-rule="evenodd" clip-rule="evenodd" fill="#D6D5DC" d="M87.993,107.983c1.172-1.078,3.058,0.724,4.068-1.008
	c0.87-0.213,1.21,0.296,1.395,1.021c-0.24,1.309-0.054,2.669-0.467,3.958c-2.29-0.008-4.581-0.017-6.873-0.025
	c-0.006-1.312-0.012-2.622-0.018-3.934C86.727,107.394,87.357,107.395,87.993,107.983z"/>
<path fill-rule="evenodd" clip-rule="evenodd" fill="#9F9DAC" d="M94.969,43.021c-2.427-0.206-5.251,0.872-6.654-2.457
	c-0.314-0.745-1.451,0.165-2.198,0.38c0.002-0.663,0.004-1.326,0.005-1.989C91.045,36.015,92.365,40.914,94.969,43.021z"/>
<path fill-rule="evenodd" clip-rule="evenodd" fill="#8D8B9D" d="M86.146,114.954c2.607,3.303,5.223,0.334,7.834,0.01
	c0.668,1.084,0.09,1.996-0.397,2.926c-0.25,0.345-0.555,0.634-0.899,0.882c-1.287,0.726-2.572,1.459-4.018,1.849
	c-0.675,0.071-1.26-0.12-1.737-0.612c-0.295-0.002-0.59-0.013-0.885-0.032C86.078,118.302,86.112,116.628,86.146,114.954z"/>
<path fill-rule="evenodd" clip-rule="evenodd" fill="#A8A6B4" d="M126.026,103.88c-0.039-0.284-0.072-0.57-0.097-0.856
	c-0.73-1.39,0.258-2.177,1.062-3.029l-0.001-0.001c2.335-0.702,4.145-3.281,7.043-1.974c-1.059,1.854-1.556,4.363-4.728,3.322
	c0.4,2.031,2.208,1.396,2.685,2.522C130.003,103.869,128.015,103.875,126.026,103.88z"/>
<path fill-rule="evenodd" clip-rule="evenodd" fill="#ABA9B5" d="M41.029,92.943c0.314,0.029,0.621,0.089,0.923,0.18
	c0.346,1.291,0.692,2.581,1.039,3.871c0.348,0.284,0.449,0.639,0.31,1.066c-0.574,0.888-1.327,1.567-2.319,1.965
	c-1.188-1.071-2.002-2.33-2.014-3.993C38.464,94.207,37.669,92.189,41.029,92.943z"/>
<path fill-rule="evenodd" clip-rule="evenodd" fill="#908E9F" d="M41.029,92.943c-2.049,0.12-1.955,1.671-2.062,3.088
	c-1.882-2.509-0.646-5.344-0.843-8.03C42.928,87.396,40.19,91.22,41.029,92.943z"/>
<path fill-rule="evenodd" clip-rule="evenodd" fill="#6C6A80" d="M119.002,98.008c0.744,1.959,1.514,3.918,0.024,5.887
	c-1.325,0.06-2.651,0.118-3.977,0.179l-0.213-0.223c-0.771-0.299-1.824-0.074-2.173-1.164c0.001-0.459,0.162-0.849,0.504-1.159
	c1.214-0.749,2.996-0.793,3.298-2.674c0.349-0.859,0.763-1.666,1.639-2.11C118.871,96.833,119.486,97.031,119.002,98.008z"/>
<path fill-rule="evenodd" clip-rule="evenodd" fill="#A09EAD" d="M42.959,98.028c0.011-0.345,0.021-0.69,0.032-1.035
	c4.541,0.542,5.415,2.042,4.003,6.871c-0.627,0.13-0.911-0.201-1.025-0.762C45.119,101.32,42.506,100.583,42.959,98.028z"/>
<path fill-rule="evenodd" clip-rule="evenodd" fill="#6B687F" d="M89.988,68.992c-2.493,0.718-1.49,4.192-3.913,4.965
	c-0.006-1.992-0.012-3.984-0.019-5.977c0.644-0.665,1.287-1.33,1.93-1.995C89.692,66.295,91.084,66.816,89.988,68.992z"/>
<path fill-rule="evenodd" clip-rule="evenodd" fill="#737186" d="M102.002,148.977c0.006-0.824,0.171-1.571,0.962-2.021
	c1.947-1.012,3.979-0.323,5.979-0.296c0.899,0.546,1.064,1.439,1.13,2.381c-0.436,0.79-1.184,0.96-1.994,1.002
	C106.004,149.964,103.749,150.921,102.002,148.977z"/>
<path fill-rule="evenodd" clip-rule="evenodd" fill="#DEDEE2" d="M157.909,94.957c1.04,0.702,2.079,1.403,3.119,2.105
	c-0.376,0.966-0.752,1.93-1.128,2.896c-0.263,0.353-0.545,0.368-0.846,0.048C154.646,99.236,156.893,96.958,157.909,94.957z"/>
<path fill-rule="evenodd" clip-rule="evenodd" fill="#B9B8C3" d="M42.959,98.028c0.874,1.768,3.717,2.368,3.01,5.074
	c-2.192-0.168-3.422-1.896-4.987-3.078C41.06,98.782,41.625,98.026,42.959,98.028z"/>
<path fill-rule="evenodd" clip-rule="evenodd" fill="#747187" d="M86.985,49.997c-0.302-0.002-0.604-0.009-0.904-0.021
	c0.018-1.68,0.034-3.36,0.051-5.04c0.952,0.021,1.904,0.043,2.856,0.064c1.016,1.573,1.511,3.185,0.377,4.923
	C88.594,50.595,87.799,50.609,86.985,49.997z"/>
<path fill-rule="evenodd" clip-rule="evenodd" fill="#67647B" d="M110.964,144.966c0.271-2.121-1.018-5.197,3.055-4.993
	c-0.115,1.717,0.568,3.591-0.99,5.023C112.332,145.532,111.643,145.607,110.964,144.966z"/>
<path fill-rule="evenodd" clip-rule="evenodd" fill="#6A677E" d="M110.964,144.966c0.688,0.011,1.376,0.021,2.064,0.03
	c-0.291,0.333-0.581,0.664-0.872,0.996c-0.922,0.749-1.61,2.238-3.161,0.996c-2.016,1.035-4.018-0.449-6.03-0.033
	c0.011-0.324,0.019-0.649,0.022-0.975C105.646,145.643,108.305,145.305,110.964,144.966z"/>
<path fill-rule="evenodd" clip-rule="evenodd" fill="#6F6C82" d="M102.002,148.977c1.946,0.81,4.221-0.264,6.076,1.065
	c-0.466,0.764-1.21,0.948-2.028,0.979c-1.35-0.029-2.699-0.059-4.05-0.087c-0.363-0.207-0.487-0.418-0.371-0.634
	c0.116-0.218,0.233-0.326,0.354-0.326C101.985,149.642,101.992,149.309,102.002,148.977z"/>
<path fill-rule="evenodd" clip-rule="evenodd" fill="#615E76" d="M142.948,75.889c0.018-0.292,0.031-0.584,0.042-0.876
	c3.36,0.2,6.838-0.895,10.053,0.913c-0.189,0.201-0.379,0.402-0.567,0.606c-0.989,0.587-2.082,0.756-3.209,0.792
	C147.063,77.279,144.719,77.838,142.948,75.889z"/>
<path fill-rule="evenodd" clip-rule="evenodd" fill="#77758A" d="M62.993,99.988c0.434-0.795,1.172-0.979,1.993-0.995
	c0.308,0.275,0.511,0.612,0.616,1.01c0.118,0.971,0.203,1.952,0.695,2.837c0.117,0.416,0.009,0.764-0.315,1.045
	c-0.994,0.001-1.987,0.002-2.98,0.004C61.896,102.591,61.944,101.291,62.993,99.988z"/>
<path fill-rule="evenodd" clip-rule="evenodd" fill="#59566F" d="M93.992,146.984c1.111,2.236-0.127,2.862-2.063,3.01
	c-0.324-0.3-0.648-0.6-0.973-0.9c-0.421-0.533-0.553-1.13-0.397-1.791C91.611,146.218,92.799,146.574,93.992,146.984z"/>
<path fill-rule="evenodd" clip-rule="evenodd" fill="#605D76" d="M90.982,146.985c-0.009,0.702-0.018,1.404-0.026,2.107
	c-0.668-0.665-1.335-1.332-2.002-1.999c-0.623-1.301-1.489-2.543-0.964-4.112c0.666,0,1.332,0.001,1.999,0.001
	c0.155,0.136,0.311,0.271,0.469,0.404C91.114,144.516,91.162,145.734,90.982,146.985z"/>
<path fill-rule="evenodd" clip-rule="evenodd" fill="#66637B" d="M87.99,142.981c0.697,1.282,1.167,2.618,0.964,4.111
	c-1.713-0.834-2.188-2.549-2.914-4.088C86.689,142.88,87.326,141.879,87.99,142.981z"/>
<path fill-rule="evenodd" clip-rule="evenodd" fill="#726F85" d="M65.982,103.885c0.006-0.298,0.011-0.595,0.013-0.893
	c-0.065-0.864,0.205-1.606,0.801-2.234c0.558-0.346,1.146-0.405,1.763-0.184c0.148,0.141,0.297,0.283,0.445,0.425
	c0.01,0.821,0.182,1.562,0.979,1.996c0.229,0.178,0.313,0.365,0.254,0.563c-0.062,0.202-0.127,0.303-0.198,0.303
	C68.687,103.868,67.334,103.877,65.982,103.885z"/>
<path fill-rule="evenodd" clip-rule="evenodd" fill="#6B687F" d="M41.993,80.995c-0.69-0.016-1.38-0.031-2.07-0.046
	c0.31-0.341,0.619-0.682,0.928-1.022c1.747,0.528,5.106-1.121,4.148,3.068c-0.2-0.044-0.4-0.088-0.601-0.131
	C43.604,82.232,42.86,81.534,41.993,80.995z"/>
<path fill-rule="evenodd" clip-rule="evenodd" fill="#726F85" d="M62.993,99.988c0.003,1.301,0.006,2.601,0.009,3.9
	c-0.675,0.002-1.35,0.005-2.023,0.006c-0.328-0.636-0.657-1.272-0.985-1.908c0.527-0.803,1.192-1.468,1.995-1.995
	C62.323,99.99,62.658,99.989,62.993,99.988z"/>
<path fill-rule="evenodd" clip-rule="evenodd" fill="#817F92" d="M108.995,146.988c1.054-0.332,2.106-0.664,3.16-0.996
	c-0.097,1.425-0.792,2.439-2.083,3.048C109.243,148.604,109.012,147.853,108.995,146.988z"/>
<path fill-rule="evenodd" clip-rule="evenodd" fill="#CAC9D1" d="M87.993,107.983c-0.632,0.004-1.263,0.009-1.895,0.013
	c0.014-0.996,0.026-1.991,0.039-2.988C88.116,105.152,87.978,106.615,87.993,107.983z"/>
<path fill-rule="evenodd" clip-rule="evenodd" fill="#4A475F" d="M159.055,100.006c0.281-0.025,0.563-0.042,0.846-0.048
	c0.474,1.812-0.074,2.553-1.971,1.878C158.305,101.227,158.68,100.616,159.055,100.006z"/>
<path fill-rule="evenodd" clip-rule="evenodd" fill="#8C899B" d="M70.038,103.86c-0.021-0.288-0.04-0.577-0.056-0.865
	c0.475-0.777,1.198-1.213,2.017-0.782c0.793,0.418,0.144,1.104,0.003,1.67C71.348,103.875,70.692,103.868,70.038,103.86z"/>
<path fill-rule="evenodd" clip-rule="evenodd" fill="#615E76" d="M155.984,76.968c-0.334,0.341-0.669,0.682-1.003,1.022
	c-1.565,0.346-2.958,0.495-2.118-1.875c0,0,0.179-0.188,0.18-0.188C154.124,75.989,155.298,75.792,155.984,76.968z"/>
<path fill-rule="evenodd" clip-rule="evenodd" fill="#DEDEE2" d="M156.994,88.976c-0.022,0.356-0.045,0.714-0.068,1.071
	c-0.568,0.267-1.357,0.385-1.656,0.83c-0.589,0.881-0.417,2.644-1.909,2.416c-1.713-0.262-1.332-1.967-1.397-3.24
	c-1.07-0.671-1.524-1.458-0.475-2.53C153.651,86.763,155.699,86.442,156.994,88.976z"/>
<path fill-rule="evenodd" clip-rule="evenodd" fill="#E1E0E5" d="M150.941,88.273c0.341,0.592,0.682,1.185,1.021,1.779
	c-2.544,1.353-4.388,4.5-7.996,3.116c-0.507-2.635,2.06-2.41,3.222-3.487c0.325-0.234,0.655-0.474,0.962-0.737
	c0.433-0.397,0.897-0.758,1.419-1.039c0.356-0.147,0.729-0.198,1.113-0.14C150.768,87.935,150.854,88.104,150.941,88.273z"/>
<path fill-rule="evenodd" clip-rule="evenodd" fill="#B2B1BD" d="M148.862,89.916c-1.156,1.8-3.934,1.157-4.896,3.25
	c-0.343,0.267-0.685,0.531-1.027,0.796c-0.754,0.658-1.5,0.619-2.239-0.03c-0.692-1.53-0.114-2.777,0.867-3.939
	C143.98,88.317,146.412,88.126,148.862,89.916z"/>
<path fill-rule="evenodd" clip-rule="evenodd" fill="#C9C8D0" d="M140.961,93.95c0.66,0.004,1.32,0.008,1.979,0.012
	c-0.627,1.212-1.908,1.46-2.976,2.021c-0.657,0.004-1.313,0.008-1.97,0.011C137.892,93.726,139.267,93.605,140.961,93.95z"/>
<path fill-rule="evenodd" clip-rule="evenodd" fill="#EAEAED" d="M102.011,39.045c-0.007-0.349-0.014-0.696-0.021-1.045
	c0.328-0.008,0.655-0.014,0.982-0.018c1.349-1.412,3.124-0.396,4.648-0.816c1.547-0.187,2.595,0.56,3.372,1.808
	c0.989,0.34,1.979,0.679,2.969,1.019c-0.005,1.666-0.009,3.332-0.014,4.999c-0.317,0.334-0.704,0.464-1.161,0.395
	c-0.865-0.285-1.533-0.856-2.156-1.495c-0.509-1.964-2.409-2.619-3.65-3.892C105.58,38.346,103.696,39.214,102.011,39.045z"/>
<path fill-rule="evenodd" clip-rule="evenodd" fill="#EEEEF0" d="M107.988,37.994c-1.672-0.004-3.345-0.008-5.017-0.012
	c0.438-3.773,3.716-0.376,5.011-1.984C108.577,36.662,108.577,37.327,107.988,37.994z"/>
<path fill-rule="evenodd" clip-rule="evenodd" fill="#F6F6F7" d="M107.988,37.994c-0.002-0.666-0.003-1.331-0.005-1.996
	c1.898,0.086,2.897,1.082,3.009,2.975C109.991,38.647,108.989,38.32,107.988,37.994z"/>
<path fill-rule="evenodd" clip-rule="evenodd" fill="#5D5A73" d="M50.993,86.99c2.132-6.345,3.075-6.897,9.202-5.343
	c0.1-1.741-1.867-2.217-2.203-3.656c0.474,0.098,1.054,0.054,1.405,0.315c4.14,3.089,7.347,2.414,9.618-2.285
	c1.212,1.433,2.654,2.637,3.973,3.964c-1.192,3.096,2.556,3.726,2.999,6.006c0.54,0.57,0.594,1.214,0.295,1.911
	c-0.341,0.32-0.748,0.481-1.215,0.488c-1.647-0.573-3.341-0.935-5.095-0.995c-2.774-0.536-4.688,0.813-6.277,2.865
	c-1.06,0.334-2.08,0.705-1.934,2.138c-0.027,0.692-0.197,1.333-0.652,1.875c-0.816,0.581-1.709,0.632-2.646,0.386
	c-0.435-0.176-0.808-0.441-1.126-0.787c-0.476-2.862-3.325-0.27-4.342-1.884C54.055,89.629,52.716,88.233,50.993,86.99z"/>
<path fill-rule="evenodd" clip-rule="evenodd" fill="#56536D" d="M75.997,87.981c-0.003-0.663-0.007-1.326-0.01-1.989
	c1.997-2.337,2.204-6.209,6.003-7.002c4.689,1.007,2.229,3.831,1.58,6.199C81.432,87.161,79.376,89.37,75.997,87.981z"/>
<path fill-rule="evenodd" clip-rule="evenodd" fill="#636078" d="M72.988,79.986c-2.831,0.188-4.209-1.08-3.973-3.964
	c1.815-0.008,3.654-0.193,5.439,0.038c1.256,0.163,3.462-1.133,3.614,1.094c0.133,1.933-1.966,1.711-3.417,1.926
	C74.066,79.167,73.541,79.672,72.988,79.986z"/>
<path fill-rule="evenodd" clip-rule="evenodd" fill="#605D75" d="M82.986,84.988c0.584-2.152,1.674-4.387-0.996-5.998
	c0.022-1.44,0.655-2.46,2.038-2.967c0.343,2.653,5.313,4.748,0.959,7.966C84.457,84.594,84.104,85.558,82.986,84.988z"/>
<path fill-rule="evenodd" clip-rule="evenodd" fill="#6B687F" d="M42.013,92.886c-1.101-2.204,2.897-3.558,0.982-5.896
	c-2.604-2.961-0.313-3.486,1.993-4.003l0.011,0.008c-0.407,2.768,2.031,5.666-1.839,9.258c6.966-2.185,7.587,0.347,5.843,4.72
	c0.354,0.223,0.469,0.439,0.345,0.651c-0.123,0.208-0.244,0.313-0.367,0.313c0,0,0.02,0.089,0.02,0.09
	C46.954,95.927,45.734,92.705,42.013,92.886z"/>
<path fill-rule="evenodd" clip-rule="evenodd" fill="#6C6981" d="M48.98,97.935c0.009-0.321,0.017-0.643,0.022-0.964
	c1.877,0.432,2.867-0.917,3.995-1.992c1.498-1.17,2.709-3.788,4.997-0.994l0.002,0.001c2.352,3.651-0.376,4.273-2.968,4.977
	c0,0-0.056,0.042-0.057,0.042C53.133,97.769,51.024,98.033,48.98,97.935z"/>
<path fill-rule="evenodd" clip-rule="evenodd" fill="#605D76" d="M57.995,93.985c-2.024-1.471-3.201,1.319-4.998,0.994
	c0-0.997-0.001-1.995-0.002-2.992c1.666,0.174,2.969-0.321,3.48-3.144C57.201,91.299,57.598,92.642,57.995,93.985z"/>
<path fill-rule="evenodd" clip-rule="evenodd" fill="#9694A4" d="M97.984,44.965c0.933-1.303,2.375-0.839,3.625-1.043
	c1.349-0.219,2.895-1.484,3.903,0.451c1.055,2.021-0.386,2.929-1.887,3.829c-1.876,1.123-1.065,2.028,0.355,2.796
	c0.345,0.355,0.741,0.68,0.987,1.107c2.65,4.591,3.172,4.644,7.614,0.714c0.46-0.185,0.899-0.153,1.315,0.12
	c-0.002,0.682-0.004,1.364-0.007,2.046c-1.454,6.206-1.454,6.206-11.916,5.914c-2.612-0.915-2.957-2.852-2.324-5.215
	c0.471-1.761,1.109-3.519-0.129-5.232c-0.572-1.791-0.057-3.89-1.531-5.433L97.984,44.965z"/>
<path fill-rule="evenodd" clip-rule="evenodd" fill="#69677E" d="M113.916,72.931c0.094,1.117-0.104,2.334,1.061,3.083
	c1.672,0.937,2.479,2.375,1.527,4.099c-1.249,2.263-3.332-0.206-4.913,0.595c-1.213-0.078-1.793,0.571-1.961,1.707
	c-1.862,0.667-2.811-1.49-4.278-1.289c0.898,0.527,2.696,0.687,1.932,2.74c-0.345,0.368-0.76,0.594-1.261,0.672
	c-0.252,0.001-0.5-0.006-0.751-0.002c-1.61-0.235-3.229-0.156-4.846-0.192c-1.381-0.03-3.187,0.644-3.861-1.115
	c-0.862-2.251,1.081-3.075,2.565-4.029c2.235-1.462,4.743-2.249,7.292-2.915c2.189-0.513,2.065-3.38,4.102-4.057
	C111.787,71.834,112.919,72.058,113.916,72.931z"/>
<path fill-rule="evenodd" clip-rule="evenodd" fill="#615E76" d="M128.996,76.016c1.675,0.007,3.349,0.014,5.023,0.021
	c2.117,3.282,5.347,5.979,5.43,10.333c-0.149,0.447-0.384,0.843-0.708,1.187c-1.303,1.013-2.675,1.84-4.427,1.617
	c-0.382-0.234-0.664-0.559-0.831-0.979c-0.206-1.215,0.03-2.551-0.955-3.567C129.881,82.354,125.955,80.606,128.996,76.016z"/>
<path fill-rule="evenodd" clip-rule="evenodd" fill="#605D76" d="M110.994,79.985c0.508-0.721,1.288-1.198,2.066-0.915
	c5.565,2.023,2.393-1.35,1.917-3.058c0.992,0.001,1.985,0.001,2.979,0.002c1.031,0.762,1.199,2.102,2.022,3
	c0.285,0.266,0.568,0.531,0.874,0.763c0.81,0.499,1.496-0.001,2.217-0.276c0.444-0.121,0.885-0.137,1.337-0.072
	c0.455,0.159,0.814,0.431,1.078,0.834c0.452,1.241,0.303,2.321-0.832,3.136c-1.321-0.147-2.018,0.268-1.547,1.731
	c-0.358,0.294-0.764,0.491-1.213,0.603c-3.766,0.584-7.004-1.485-10.534-2.098c-0.394-0.245-0.668-0.588-0.828-1.022
	C110.66,81.733,110.967,80.885,110.994,79.985z"/>
<path fill-rule="evenodd" clip-rule="evenodd" fill="#6F6D83" d="M113.925,63.952c-0.006,1.022-0.011,2.045-0.017,3.069
	c-0.701,0.628-0.792,1.27-0.046,1.932c0.002,1.022,0.005,2.046,0.008,3.068c-1.697,0.05-3.362-0.442-5.068-0.294
	c-0.914-0.195-1.63-0.692-2.191-1.426c-0.342-0.553-0.536-1.16-0.648-1.792c-0.117-0.579-0.228-1.166-0.44-1.722
	c-0.531-0.867-1.667-1.187-2.019-2.223c-0.065-0.464-0.014-0.907,0.151-1.345c2.398-2.487,5.019-2.699,7.85-0.782
	C112.422,62.764,113.213,63.295,113.925,63.952z"/>
<path fill-rule="evenodd" clip-rule="evenodd" fill="#6F6C82" d="M138.976,86.96c-1.99-2.703-1.605-6.856-5.255-8.618
	c-0.221-0.106,0.184-1.508,0.298-2.306c1.993,0.002,3.986,0.003,5.979,0.003c0.306,1.192-0.854,2.823,1.072,3.539
	c0.33,0.348,0.575,0.735,0.753,1.177c0.387,2.505,0.977,5.076-2.122,6.423C139.46,87.105,139.218,87.032,138.976,86.96z"/>
<path fill-rule="evenodd" clip-rule="evenodd" fill="#858395" d="M142.948,75.889c2.323,0.059,4.646,0.117,6.969,0.176
	c1.104,2.188,1.416,4.081-1.8,4.535c-1.379,0.194-2.146,1.358-3.272,1.945c-0.894,0.355-1.779,0.386-2.642-0.086
	c-1.076-0.479,0.99-2.548-1.237-2.454l0.008,0.001c-5.067-2.683,0.649-2.641,0.999-3.954
	C142.299,76.001,142.624,75.948,142.948,75.889z"/>
<path fill-rule="evenodd" clip-rule="evenodd" fill="#828094" d="M113.925,63.952c-0.976,0.01-1.951,0.02-2.926,0.029
	c-0.654-2.298-2.011-3.12-4.309-2.116c-1.682,0.735-3.381,1.303-4.827-0.485c-0.264-0.495-0.221-0.962,0.125-1.402
	c2.9,0.572,5.516-1.346,8.683-0.491c2.973,0.803,0.979-3.742,3.222-4.501C114.476,57.972,112.618,60.968,113.925,63.952z"/>
<path fill-rule="evenodd" clip-rule="evenodd" fill="#CCCBD3" d="M111.187,43.848c0.602,0.381,1.202,0.762,1.804,1.143
	c1.306,1.475-0.432,3.549,0.986,5.002c-0.008,0.332-0.015,0.664-0.022,0.996c-2.204,1.564-3.969,1.235-5.24-1.217
	c-0.145-0.999,0.654-1.323,1.274-1.775c1.163-0.725,0.958-1.901,0.994-3C110.515,44.519,110.582,44.136,111.187,43.848z"/>
<path fill-rule="evenodd" clip-rule="evenodd" fill="#5C5973" d="M128.996,76.016c-1.773,4.902,3.648,5.799,4.989,8.967
	c-0.412,0.327-0.88,0.468-1.403,0.429c-4.461-0.871-6.269-3.818-6.347-8.118c0.149-0.489,0.405-0.916,0.764-1.283
	C127.665,76.013,128.33,76.014,128.996,76.016z"/>
<path fill-rule="evenodd" clip-rule="evenodd" fill="#817E92" d="M108.988,70.989c1.846-0.687,3.494-0.437,4.883,1.032
	c0.048,0.302,0.063,0.605,0.045,0.91c-1.308,0.022-2.614,0.045-3.922,0.068c-1.298,0.905-2.682,1.313-4.237,0.742
	c-0.452-0.225-0.784-0.57-0.996-1.03C105.391,70.229,107.647,71.731,108.988,70.989z"/>
<path fill-rule="evenodd" clip-rule="evenodd" fill="#5C5973" d="M123.987,79.986h-0.497l-0.498,0.001
	c-0.988,0.82-1.984,0.817-2.988,0.03l-0.021-0.034c-1.062-1.329-1.078-2.653,0.023-3.969c0.987,0.001,1.975,0.003,2.962,0.005
	C124.048,77.15,124.802,78.367,123.987,79.986z"/>
<path fill-rule="evenodd" clip-rule="evenodd" fill="#BFBDC7" d="M108.997,48.997c0.987,2.32,3.041,1.983,4.957,1.992
	c-0.019,0.65-0.037,1.301-0.056,1.952c0-0.001-0.451,0.011-0.451,0.011l-0.45-0.016c-0.86,0.238-1.637,0.844-2.612,0.592
	c-1.692-0.631-2.858-1.688-2.93-3.628C107.694,49.132,108.094,48.633,108.997,48.997z"/>
<path fill-rule="evenodd" clip-rule="evenodd" fill="#817E92" d="M141.973,76.052c-0.077,1.381-3.761,1.853-0.999,3.953
	c-1.253-0.063-2.889,0.243-3.282-1.278c-0.409-1.578,1.776-1.554,2.307-2.688C140.655,76.043,141.313,76.047,141.973,76.052z"/>
<path fill-rule="evenodd" clip-rule="evenodd" fill="#58546E" d="M123.987,79.986c-0.682-1.234-1.142-2.527-1.02-3.968
	c1.343-0.002,2.687-0.005,4.031-0.007c-0.011,0.327-0.016,0.654-0.017,0.98c-1.347,0.551-2.249,1.398-2.006,3.01
	C124.646,79.998,124.317,79.993,123.987,79.986z"/>
<path fill-rule="evenodd" clip-rule="evenodd" fill="#56536D" d="M120.006,76.014c-0.008,1.323-0.016,2.646-0.023,3.969
	c-2.655-0.313-1.803-2.416-2.026-3.97C118.64,76.014,119.323,76.014,120.006,76.014z"/>
<path fill-rule="evenodd" clip-rule="evenodd" fill="#DDDDE2" d="M113.977,49.993c-3.039-1.132,0.05-3.474-0.986-5.002
	c0.319,0,0.639-0.001,0.957,0C113.957,46.657,113.967,48.325,113.977,49.993z"/>
<path fill-rule="evenodd" clip-rule="evenodd" fill="#79768B" d="M113.862,68.953c-0.76-0.047-2,0.286-2.081-0.56
	c-0.116-1.211,1.168-1.266,2.128-1.373C113.893,67.665,113.877,68.309,113.862,68.953z"/>
<path fill-rule="evenodd" clip-rule="evenodd" fill="#A19FAE" d="M110.991,53.001c0.666-0.094,1.302-1.153,2.006-0.065
	c-1.1,2.532-2.17,4.293-5.81,3.866c-4.587-0.538-2.046-3.975-3.206-5.803c0.336-0.003,0.672-0.006,1.009-0.009
	c1.53-1.255,2.391-0.007,3.264,0.932C109.019,52.742,109.533,54.007,110.991,53.001z"/>
<path fill-rule="evenodd" clip-rule="evenodd" fill="#BCBAC5" d="M111.187,43.848c-0.068,0.383-0.136,0.767-0.204,1.149
	c-3.148-0.358-4.485-4.344-7.989-3.99c1.042-1.471,2.61-0.859,3.986-1.009C109.645,39.902,112.078,40.058,111.187,43.848z"/>
<path fill-rule="evenodd" clip-rule="evenodd" fill="#AEACB9" d="M110.991,53.001c-0.628,2.262-1.735,2.815-2.905,0.482
	c-0.718-1.43-1.446-2.418-3.096-2.494c0-0.333-0.001-0.667-0.001-1c0.999-0.65,1.996-0.761,2.987,0.019
	C108.639,51.35,109.649,52.343,110.991,53.001z"/>
<path fill-rule="evenodd" clip-rule="evenodd" fill="#BCBAC5" d="M107.977,50.008c-0.996-0.007-1.992-0.013-2.987-0.019
	c1.072-2.156,3.185-1.699,4.999-1.993c-0.33,0.333-0.661,0.667-0.991,1C108.656,49.334,108.316,49.67,107.977,50.008z"/>
<path fill-rule="evenodd" clip-rule="evenodd" fill="#A2A0AF" d="M113.903,107.04c-0.021,2.321-0.042,4.644-0.063,6.966
	c-1.133,0.223-1.573-0.638-2.118-1.34c-1.57-2.404-3.134-4.815-5.299-6.757c-0.642-0.649-1.363-1.236-1.698-2.132
	c0.052-0.486,0.263-0.894,0.608-1.236C110.449,100.9,110.449,100.9,113.903,107.04z"/>
<path fill-rule="evenodd" clip-rule="evenodd" fill="#817E92" d="M113.903,107.04c-2.923-1.426-4.361-6.163-8.897-3.991
	c-0.117-0.221-0.234-0.44-0.353-0.661c0.009-0.516,0.155-0.987,0.431-1.423c1.357-1.705,2.854-3.158,5.305-2.617
	c2.563,0.566,1.927,2.966,2.599,4.614c0.731,0.062,1.46,0.126,1.851,0.89C113.814,104.706,113.997,105.913,113.903,107.04z"/>
<path fill-rule="evenodd" clip-rule="evenodd" fill="#898799" d="M113.887,125.038c0.013,0.31,0.008,0.62-0.016,0.93
	c-1.422,1.529-2.639,3.597-5.252,1.991c-1.207-2.168-1.364-4.478-0.906-6.867c1.468-1.302,2.821-0.599,4.17,0.235
	C113.138,122.243,112.787,124.03,113.887,125.038z"/>
<path fill-rule="evenodd" clip-rule="evenodd" fill="#868396" d="M113.854,116.865c0.016,0.731,0.03,1.463,0.046,2.194
	c-1.348,1.792-3.161,1.87-5.127,1.399c-0.482-0.05-0.914-0.221-1.292-0.53c-0.898-1.204-1.554-2.443-0.517-3.905
	C109.319,115.808,111.872,114.011,113.854,116.865z"/>
<path fill-rule="evenodd" clip-rule="evenodd" fill="#6C6980" d="M100.986,130.989c-0.332-0.336-0.665-0.672-0.997-1.007
	c0.683-1.011,1.816-1.299,2.831-1.782c1.639-0.391,2.326-2.21,3.944-2.641c2.787,1.289,2.309,3.566,1.78,5.86
	c-0.186,0.19-0.373,0.38-0.562,0.568c-0.997-0.336-1.995-0.673-2.992-1.009c-0.54,0.578-1.203,0.883-1.993,0.919
	C102.206,131.864,101.558,131.513,100.986,130.989z"/>
<path fill-rule="evenodd" clip-rule="evenodd" fill="#898799" d="M113.875,128.039c-0.005,1.291-0.011,2.58-0.016,3.87
	c-0.338,0.389-0.749,0.669-1.232,0.843c-1.248,0.107-2.454-0.11-3.638-0.488c-0.675-0.815-0.443-1.789-0.466-2.715
	C110.141,128.457,111.901,127.869,113.875,128.039z"/>
<path fill-rule="evenodd" clip-rule="evenodd" fill="#6C6980" d="M109.014,131.955c1.326,0.008,2.651,0.016,3.976,0.024
	c0.758,1.663,0.732,3.327,0.008,4.992c-1.671-1.661-3.343-3.322-5.014-4.983l0.021-0.022
	C108.336,131.502,108.672,131.477,109.014,131.955z"/>
<path fill-rule="evenodd" clip-rule="evenodd" fill="#5E5B74" d="M100.986,130.989c0.666-0.003,1.333-0.006,1.999-0.009
	c0.911,1.089,1.91,2.09,2.999,3c0.335,1.001,0.669,2.001,1.003,3.002l-0.002,0.003c-2.91,1.095-4.403-1.122-6.195-2.647
	c-0.202-0.489-0.136-0.939,0.195-1.352C100.985,132.32,100.985,131.654,100.986,130.989z"/>
<path fill-rule="evenodd" clip-rule="evenodd" fill="#A19FAD" d="M113.854,116.865c-2.151-1.562-4.807,1.13-6.912-0.818
	c-0.091-0.194-0.181-0.389-0.271-0.582c0.062-0.442,0.278-0.787,0.646-1.039c1.171-0.554,2.438-0.681,3.702-0.832
	c1.143-0.021,1.915,0.748,2.787,1.309C113.822,115.557,113.839,116.211,113.854,116.865z"/>
<path fill-rule="evenodd" clip-rule="evenodd" fill="#A9A8B5" d="M108.121,120.04c1.927-0.327,3.854-0.654,5.779-0.981
	c0.011,0.621,0.021,1.242,0.032,1.863c-0.509,0.623-0.77,1.718-1.966,1.031c-1.314-0.344-2.63-0.687-3.943-1.03
	C107.778,120.598,107.796,120.302,108.121,120.04z"/>
<path fill-rule="evenodd" clip-rule="evenodd" fill="#838194" d="M113.875,128.039c-1.504,0.965-2.891,2.54-4.89,0.944
	c-0.248-0.22-0.332-0.441-0.25-0.663s0.164-0.333,0.247-0.333c1.63-0.673,3.26-1.346,4.89-2.02
	C113.873,126.658,113.874,127.349,113.875,128.039z"/>
<path fill-rule="evenodd" clip-rule="evenodd" fill="#55526D" d="M105.984,133.98c-2.214,0.215-3.212-0.786-2.999-2.999
	c0.669-0.001,1.337-0.001,2.005-0.002C105.322,131.979,105.653,132.98,105.984,133.98z"/>
<path fill-rule="evenodd" clip-rule="evenodd" fill="#79768B" d="M111.967,121.953c0.655-0.344,1.311-0.688,1.966-1.031
	c-0.015,1.371-0.029,2.743-0.045,4.115C111.964,124.808,111.955,123.387,111.967,121.953z"/>
<path fill-rule="evenodd" clip-rule="evenodd" fill="#BFBEC8" d="M113.807,114.902c-0.953-0.295-1.906-0.59-2.859-0.884
	c-0.126-0.179-0.252-0.357-0.38-0.536c-0.083-0.44-0.038-0.867,0.135-1.281c0.691-0.787,1.448-0.889,2.275-0.21
	c0.288,0.671,0.575,1.343,0.862,2.015C113.904,114.307,113.894,114.605,113.807,114.902z"/>
<path fill-rule="evenodd" clip-rule="evenodd" fill="#78768A" d="M112.997,136.972c-0.003-1.664-0.005-3.328-0.008-4.992
	c0.292-0.007,0.583-0.03,0.871-0.069C113.758,133.629,114.615,135.511,112.997,136.972z"/>
<path fill-rule="evenodd" clip-rule="evenodd" fill="#A5A3B1" d="M140.961,93.95c-0.988,0.681-1.978,1.362-2.966,2.043
	c-0.348-0.021-0.695-0.04-1.043-0.061c-1.067-1.04-1.065-2.285-0.699-3.605c0.296-0.747,0.795-1.328,1.453-1.781
	c0.692-0.382,1.438-0.548,2.226-0.537c0.787,0.065,1.472,0.357,2.018,0.944C141.62,91.953,141.291,92.951,140.961,93.95z"/>
<path fill-rule="evenodd" clip-rule="evenodd" fill="#908E9F" d="M136.974,91.978c-0.007,1.319-0.014,2.637-0.021,3.955
	c-0.641,0.359-1.28,0.719-1.92,1.079c-0.935,0.685-1.944,0.496-2.959,0.255c-0.643-2.312,0.744-3.898,1.979-5.541
	C135.084,91.155,136.066,91.131,136.974,91.978z"/>
<path fill-rule="evenodd" clip-rule="evenodd" fill="#9694A4" d="M131.965,96.975c1.022,0.012,2.045,0.023,3.068,0.036
	c-0.333,0.336-0.667,0.672-1,1.008c-2.297,0.839-4.313,2.683-7.044,1.974c0.334-0.343,0.668-0.687,1.001-1.03
	C129.003,97.677,129.65,95.659,131.965,96.975z"/>
<path fill-rule="evenodd" clip-rule="evenodd" fill="#706D83" d="M121.977,85c0.335-0.002,0.671-0.003,1.006-0.005
	c1.89,1.066,1.968,3.504,3.619,4.751c1.116,1.772,4.207,1.417,4.449,4.125c-1.654,1.654-3.346,1.422-5.059,0.111
	c-3.472-0.641-6.384-0.31-6.991,4.025c-0.316-0.344-0.635-0.688-0.952-1.033c-0.623-0.404-0.907-1.02-1.088-1.707
	c-0.17-0.67-0.272-1.354-0.369-2.038c-0.201-1.141-0.472-2.292,0.31-3.343c0.523-0.502,1.163-0.745,1.865-0.83
	c0.451-0.053,1.319-0.064,1.3-0.19c-0.125-0.796-0.873-0.31-1.346-0.481c-1.763-0.145-2.847-0.719-1.723-2.69
	C118.614,85.151,120.382,85.692,121.977,85z"/>
<path fill-rule="evenodd" clip-rule="evenodd" fill="#79778C" d="M125.992,93.982c1.684-0.231,3.594,0.673,4.988-1.001
	c0.09-0.629,0.441-1.079,0.969-1.41c0.577-0.231,1.151-0.231,1.721,0.032c0.125,0.151,0.251,0.305,0.376,0.457
	c0.256,2.04-0.448,3.674-2.081,4.914c-1.324,0.663-2.649,1.327-3.975,1.988C126.33,97.702,125.658,96.044,125.992,93.982z"/>
<path fill-rule="evenodd" clip-rule="evenodd" fill="#9694A4" d="M126.991,99.994c-0.354,1.01-0.707,2.02-1.062,3.029
	c-1.058-0.212-2.27,0.35-3.219-0.658C123.427,100.271,125.09,99.924,126.991,99.994z"/>
<path fill-rule="evenodd" clip-rule="evenodd" fill="#6B687F" d="M89.988,68.992c0.148-1.545-1.385-1.97-2.002-3.006
	c0.108-0.126,0.201-0.347,0.326-0.366c6.28-0.998,8.229-4.708,6.674-10.624c0.001-1.002,0.002-2.004,0.004-3.005
	c1.398-0.312,1.645,0.757,2.021,1.673c0.529,1.766-0.15,3.753,0.994,5.408c1.046,1.686,3.986,1.436,4.136,4.036
	c-0.496,0.535-1.129,0.813-1.818,0.984c-2.024,0.273-3.917,0.946-5.694,1.944c-2.576,1.207-1.865,4.276-3.423,6.058
	c-0.429,0.254-0.834,0.234-1.213-0.099C89.991,70.994,89.99,69.993,89.988,68.992z"/>
<path fill-rule="evenodd" clip-rule="evenodd" fill="#58556F" d="M93.982,55.999c0.018,3.101,0.782,6.629-3.993,6.992
	C87.11,58.613,88.326,56.483,93.982,55.999z"/>
<path fill-rule="evenodd" clip-rule="evenodd" fill="#5D5A73" d="M93.982,55.999c-3.383,1.159-6.709,2.35-3.993,6.992
	c-2.806-1.615-2.862-5.458,0.013-7.319c1.191-0.772,2.65-1.132,3.987-1.68c0.001,0.333,0.002,0.665,0.004,0.997
	C93.989,55.326,93.986,55.662,93.982,55.999z"/>
<path fill-rule="evenodd" clip-rule="evenodd" fill="#54516B" d="M100.985,132.986c0.001,0.332,0.002,0.665,0.003,0.997
	c2.338,3,1.224,6.688,1.996,10.001c-0.006,0.657-0.012,1.313-0.018,1.97c-2.002-0.269-4.222,0.814-5.98-0.961
	c0.061-0.187,0.122-0.372,0.171-0.556c0.211-0.663-0.135-1.026-0.718-1.259c-2.685-1.634-2.813-3.498-0.453-6.197
	c0.902-0.598,1.807-1.196,2.71-1.794c-2.464-0.122-4.603-0.537-6.706-1.203C94.736,131.383,97.782,131.476,100.985,132.986z"/>
<path fill-rule="evenodd" clip-rule="evenodd" fill="#4C4964" d="M95.986,136.981c1.092,1.496-3.23,5.161,2.002,5.002
	c0.61,1.309-0.163,2.155-0.998,2.98l-0.004,0.029l-0.495-0.003l-0.495,0.001c-3.203,2.929-4.7,0.743-6.013-2.004l0.006-0.005
	C91.729,140.722,92.863,137.859,95.986,136.981z"/>
<path fill-rule="evenodd" clip-rule="evenodd" fill="#888699" d="M86.99,97.99c-0.665,0.667-1.33,1.334-1.995,2.002
	c-0.005-0.338-0.009-0.677-0.014-1.015c-1.983-2.934,0.944-3.998,2.164-5.72c4.341-2.958,6.957-1.06,7.716,5.58
	c-0.131,0.455-0.352,0.873-0.659,1.236C91.449,100.605,89.787,97.328,86.99,97.99z"/>
<path fill-rule="evenodd" clip-rule="evenodd" fill="#726F85" d="M75.989,97.006c-2.556,0.935-3.075,5.43-6.985,3.993l-0.036-0.029
	c-2.09-1.309-3.443-2.678-0.37-4.418c0.602-0.246,1.232-0.326,1.87-0.294c1.176,0.092,1.628-0.912,2.321-1.564
	c0.373-0.244,0.771-0.408,1.205-0.499c0.695-0.077,1.346,0.046,1.945,0.411c0.545,0.524,0.67,1.156,0.478,1.868
	C76.274,96.651,76.132,96.829,75.989,97.006z"/>
<path fill-rule="evenodd" clip-rule="evenodd" fill="#767489" d="M88.008,93.993c-0.748,1.82-3.678,2.316-3.026,4.984
	c-3.157,0.072-6.325,0.189-8.992-1.971l0.029-0.063c2.396-1.839,5.849-0.994,8.101-3.203c0.412-0.233,0.849-0.399,1.307-0.52
	c0.473-0.08,0.944-0.075,1.417,0.001C87.306,93.364,87.694,93.623,88.008,93.993z"/>
<path fill-rule="evenodd" clip-rule="evenodd" fill="#8A889A" d="M94.02,128.955c-0.76-2.86,2.653-3.651,2.964-5.98
	c0.926-0.883,1.837-1.783,3.027-2.327c1.189-0.213,2.19,0.201,3.1,0.93c0.477,0.507,0.762,1.117,0.969,1.772
	c0.212,0.651,0.332,1.318,0.321,2.006c-0.072,0.459-0.287,0.837-0.655,1.125c-0.584,0.335-1.222,0.509-1.881,0.613
	c-0.831,0.182-1.708,0.219-2.428,0.768C97.9,129.571,96.149,130.217,94.02,128.955z"/>
<path fill-rule="evenodd" clip-rule="evenodd" fill="#7D7A8E" d="M101.986,125.986c0.668,0.001,1.336,0.002,2.004,0.004
	c1.066,1.467,0.104,2.255-1.003,2.993c-0.722,1.165-1.902,0.956-2.998,0.999c-2.379-0.055-4.954,1.29-7.019-0.989
	c0.349-0.013,0.698-0.025,1.048-0.038c2.716,0.789,3.804-1.158,4.978-2.96C99.996,127.11,100.993,127.104,101.986,125.986z"/>
<path fill-rule="evenodd" clip-rule="evenodd" fill="#9290A1" d="M86.929,120.008c0.687-0.008,1.373-0.015,2.06-0.021
	c1.482-0.263,3.016-0.33,4.363-1.135c1.831-0.474,3.523-0.773,2.631,2.12C92.734,122.813,89.48,124.706,86.929,120.008z"/>
<path fill-rule="evenodd" clip-rule="evenodd" fill="#8D8B9D" d="M95.982,120.972c-0.251-2.597-1.708-1.524-2.99-0.982
	c-0.534-0.668-0.602-1.335-0.003-2.005l-0.001,0.002c1.693-1.554,3.696-1.336,5.72-1.008c0.473,0.143,0.906,0.369,1.292,0.676
	c0.264,0.416,0.361,0.869,0.266,1.358c-0.917,0.945-1.473,2.5-3.28,1.982C96.651,120.987,96.316,120.979,95.982,120.972z"/>
<path fill-rule="evenodd" clip-rule="evenodd" fill="#838194" d="M96.985,120.995c1.033-0.616,1.447-2.158,2.996-2.002
	c0.532,0.66,0.633,1.322,0.011,1.988c-0.109,2.013-1.547,2.021-3.009,1.993C96.984,122.314,96.984,121.655,96.985,120.995z"/>
<path fill-rule="evenodd" clip-rule="evenodd" fill="#8D8B9C" d="M89.489,124.249c0.244,0.38,0.867,0.908,0.816,1.361
	c-0.103,0.91-0.962,1.26-1.824,1.24c-0.727-0.016-1.265-0.484-1.09-1.239C87.594,124.745,88.287,124.311,89.489,124.249z"/>
<path fill-rule="evenodd" clip-rule="evenodd" fill="#59556F" d="M102.984,143.984c-0.143-0.071-0.404-0.132-0.412-0.217
	c-0.312-3.297-2.41-6.306-1.584-9.784c1.999,1.001,3.998,2.002,5.997,3.002C107.285,140.252,102.282,140.487,102.984,143.984z"/>
<path fill-rule="evenodd" clip-rule="evenodd" fill="#56536D" d="M108.293,140.47c1.126,0.416,1.573,1.063,1.558,1.955
	c-0.012,0.718-0.417,1.343-1.18,1.183c-0.835-0.175-1.511-0.831-1.35-1.751C107.413,141.331,107.982,140.89,108.293,140.47z"/>
<path fill-rule="evenodd" clip-rule="evenodd" fill="#B0AFBB" d="M156.994,88.976c-1.907-1.18-3.967-1.052-6.053-0.705
	c0,0.002,0.074-0.343,0.074-0.343c0.721-3.106,3.151-0.702,4.609-1.431c1.603-0.158,3.306-0.629,4.221,1.354
	C159.294,89.237,158.072,88.923,156.994,88.976z"/>
<path fill-rule="evenodd" clip-rule="evenodd" fill="#9B99A9" d="M159.846,87.852c-1.304-0.326-2.608-0.652-3.913-0.979
	c-0.298-0.214-0.391-0.418-0.28-0.613c0.109-0.19,0.215-0.286,0.321-0.286c1.377-0.584,2.271-2.158,4.028-1.963
	C159.95,85.291,159.897,86.571,159.846,87.852z"/>
<path fill-rule="evenodd" clip-rule="evenodd" fill="#636079" d="M85.985,93.985c-0.331,0.005-0.662,0.008-0.993,0.01
	c-1.248-0.934-2.409-2.121-4.205-1.43c-0.427,0.124-0.862,0.206-1.302,0.271c-1.354,0.178-2.632-0.234-3.932-0.499
	c-1.108-0.19-2.247-0.267-3.258-0.828c-0.374-0.287-0.557-0.665-0.522-1.14c0.169-2.012,3.377,0.07,3.222-2.386
	c0.334,0,0.668-0.001,1.002-0.002c2.623-0.313,4.643-2.035,6.989-2.993c0.667-0.334,1.334-0.667,2.001-1
	c0.001,0.334,0.002,0.667,0.003,1.002c0.779,1.381,0.215,3.336,1.872,4.344c0.32,0.318,0.545,0.688,0.693,1.112
	C87.881,92.004,87.021,93.034,85.985,93.985z"/>
<path fill-rule="evenodd" clip-rule="evenodd" fill="#706D83" d="M86.981,89.995c-4.521-0.134-2.885-2.716-1.991-5.003
	c1.11-0.096,2.898,0.03,2.732-1.327c-0.513-4.201,2.743-7.562,2.27-11.669c0.332-0.003,0.664-0.004,0.996-0.005
	c1.688,1.694,1.328,3.691,0.858,5.707c-1.284,2.157-1.521,4.53-1.584,6.989C90.202,87.021,89.721,89.247,86.981,89.995z"/>
<path fill-rule="evenodd" clip-rule="evenodd" fill="#77758A" d="M145.002,81.974c0.032-1.125,0.673-2.321,1.629-2.156
	c3.398,0.588,2.712-2.071,3.287-3.754c0.982,0.017,1.965,0.032,2.946,0.05c-0.226,1.677,1.649,0.982,2.117,1.876
	c0.166,2.165-2.295,1.701-2.998,2.996c-0.918,0.973-1.894,1.851-3.299,2.038C147.314,83.178,145.995,83.145,145.002,81.974z"/>
<path fill-rule="evenodd" clip-rule="evenodd" fill="#918FA0" d="M148.975,81.968c1.003-0.327,2.006-0.654,3.009-0.982
	c0.054,1.102-0.125,2.277,0.979,3.04c0.259,0.196,0.354,0.403,0.286,0.621c-0.069,0.224-0.144,0.335-0.224,0.335
	c0.699,1.176,1.868,0.954,2.949,0.992c0.001,0.301-0.013,0.602-0.04,0.9c-1.628,0.409-3.545-0.532-4.919,1.056
	c-0.313,0.049-0.626,0.089-0.941,0.119c-0.207-0.148-0.414-0.297-0.625-0.443C148.347,85.807,147.42,83.992,148.975,81.968z"/>
<path fill-rule="evenodd" clip-rule="evenodd" fill="#6E6B81" d="M153.024,84.981c-0.046-0.317-0.066-0.636-0.062-0.957
	c0.145-1.337,0.727-2.256,2.211-1.766c0.488,0.161,1.206,0.997,1.112,1.319C155.807,85.24,154.295,84.905,153.024,84.981z"/>
<path fill-rule="evenodd" clip-rule="evenodd" fill="#53506B" d="M89.983,142.987c2.112,0.345,3.022,4.294,6.013,2.004
	c-0.668,0.663-1.336,1.328-2.004,1.993c-1.003,0.614-2.006,0.607-3.01,0.001C89.544,145.929,90.125,144.368,89.983,142.987z"/>
<path fill-rule="evenodd" clip-rule="evenodd" fill="#6B687F" d="M101.983,149.974c0.003,0.32,0.009,0.641,0.017,0.96
	c-1.941-0.354-4.641,1.211-5.689-1.209c-1.036-2.391,0.705-2.281,2.263-1.388C99.675,148.97,100.546,150.047,101.983,149.974z"/>
<path fill-rule="evenodd" clip-rule="evenodd" fill="#858396" d="M99.984,117.984c-2.332,0-4.664,0.001-6.996,0.002
	c0.331-1.008,0.661-2.015,0.992-3.022c1.022-0.973,2.045-1.946,3.066-2.919c0.819-0.885,1.753-0.876,2.753-0.356
	c0.591,0.518,0.814,1.177,0.745,1.943c-0.161,0.655-0.563,1.165-0.981,1.691c-0.514,0.649-1.446,0.479-1.942,1.104
	c0.828-0.215,1.632-0.252,2.359,0.314C100.233,117.155,100.233,117.569,99.984,117.984z"/>
<path fill-rule="evenodd" clip-rule="evenodd" fill="#AFADBA" d="M99.99,112.141c-0.981-0.032-1.963-0.064-2.944-0.097
	c-0.352-0.348-0.704-0.696-1.057-1.044c-1.682-1.745,1.038-3.513-0.042-5.262c-0.178-0.405-0.247-0.826-0.237-1.265
	c0.392-0.983,1.193-1.224,2.147-1.194c0.688,0.113,1.247,0.447,1.688,0.982c0.811,1.092,0.893,2.413,1.167,3.679
	c0.109,0.415,0.175,0.838,0.22,1.265c0.063,0.874-0.006,1.726-0.46,2.505C100.314,111.854,100.152,111.997,99.99,112.141z"/>
<path fill-rule="evenodd" clip-rule="evenodd" fill="#E7E6EA" d="M92.989,111.955c-1.901-1.319-1.847-2.646-0.011-3.976
	c0.762-0.375,1.259,0.041,1.719,0.572c0.358,0.8,0.869,1.578,0.392,2.51C94.624,111.912,93.848,112.029,92.989,111.955z"/>
<path fill-rule="evenodd" clip-rule="evenodd" fill="#C7C6CF" d="M95.089,111.062c-0.361-0.685-0.722-1.369-1.083-2.053
	c0.516-1.67,1.631-2.896,2.94-3.979c2.874,2.501-1.637,3.819-0.957,5.97C95.688,111.009,95.388,111.03,95.089,111.062z"/>
<path fill-rule="evenodd" clip-rule="evenodd" fill="#8D8A9D" d="M55.99,102.985c-0.886-0.129-2.002,0.299-2.451-0.871
	c-0.072-0.188,0.443-0.847,0.75-0.896C55.606,101.006,55.838,101.988,55.99,102.985L55.99,102.985z"/>
<path fill-rule="evenodd" clip-rule="evenodd" fill="#726F85" d="M95.991,53.992c-0.023-0.822-0.207-1.564-1.001-2.001
	c-0.876-1.659-2.167-2.636-3.891-1.39c-1.728,1.25-2.93,0.866-4.114-0.604c0.668-0.002,1.337-0.003,2.005-0.004
	c1.026-1.906,2.557-3.408,4.005-4.975c0.329-0.005,0.658-0.008,0.988-0.008c1.892,1.077,2.217,3.16,3.143,4.863
	C97.501,51.452,98.843,53.307,95.991,53.992z"/>
<path fill-rule="evenodd" clip-rule="evenodd" fill="#868496" d="M97.991,45.02c4.042,0.293,2.245,2.948,2.009,4.971
	c-1.001,0.552-1.9,0.16-2.795-0.295c-1.09-1.007-2.298-1.981-1.215-3.704C96.805,45.973,97.547,45.803,97.991,45.02z"/>
<path fill-rule="evenodd" clip-rule="evenodd" fill="#77758A" d="M92.995,45.018c0.341,3.008-2.287,3.625-4.005,4.975
	c-0.001-1.665-0.002-3.329-0.002-4.993C90.319,45.945,91.659,44.997,92.995,45.018z"/>
<path fill-rule="evenodd" clip-rule="evenodd" fill="#7E7B8F" d="M95.99,45.992c0.006,1.439,0.674,2.439,1.995,3.005
	c0.268,0.273,0.36,0.549,0.278,0.83c-0.082,0.281-0.167,0.423-0.254,0.423c-0.732,0.383-1.406,0.301-2.021-0.254
	c-1.583-1.294-0.748-3.561-2.006-4.985C94.814,45.006,95.545,45.208,95.99,45.992z"/>
<path fill-rule="evenodd" clip-rule="evenodd" fill="#747187" d="M44.988,82.986c-1.491,0.923-3.229,1.723-1.993,4.003
	c-4.779-1.256,0.585-4.207-1.002-5.995C43.432,80.996,44.428,81.663,44.988,82.986z"/>
<path fill-rule="evenodd" clip-rule="evenodd" fill="#9694A4" d="M98.006,103.97c-0.693,0.289-1.387,0.578-2.079,0.868
	c-0.603,0.648-1.229,0.642-1.878,0.069c-1.571-5.441-5.554-0.374-8.036-1.844c0.858-1.589,1.109-3.295,0.978-5.074
	c3.641-3.951,4.586,1.516,6.959,1.992c1.456,0.845,2.828,1.813,4.183,2.813C98.342,103.214,98.298,103.605,98.006,103.97z"/>
<path fill-rule="evenodd" clip-rule="evenodd" fill="#E2E1E6" d="M94.049,104.907c0.626-0.022,1.252-0.045,1.878-0.068
	c0.34,0.063,0.681,0.127,1.021,0.191c0.003,2.053-1.429,3.045-2.941,3.978c-0.342-0.342-0.685-0.685-1.027-1.028
	c-0.307-0.335-0.612-0.669-0.918-1.004C90.777,104.416,93.026,105.25,94.049,104.907z"/>
<path fill-rule="evenodd" clip-rule="evenodd" fill="#65637A" d="M68.988,96.986c-2.008,1.319-0.929,2.652-0.021,3.984
	c-0.66,0.008-1.321,0.016-1.981,0.023c-1.131,0.575-1.536-0.27-1.99-1.017c-0.004-0.328-0.006-0.655-0.01-0.983
	c-0.984-3.699-3.481,0.078-4.995-1.009c-0.388-1.635,0.924-2.024,1.928-2.644c1.146-0.434,2.32-0.474,3.511-0.219
	c0.896,0.213,1.752,0.541,2.579,0.946C68.408,96.294,68.736,96.6,68.988,96.986z"/>
<path fill-rule="evenodd" clip-rule="evenodd" fill="#605D76" d="M61.996,95.993c-0.669,0.664-1.336,1.327-2.005,1.991
	c-1.531,0.952-3.219,1.105-4.963,0.979c1.866-1.137,3.687-2.3,2.969-4.977c0.998,0.001,1.996,0.002,2.994,0.004
	C61.751,94.444,62.038,95.137,61.996,95.993z"/>
<path fill-rule="evenodd" clip-rule="evenodd" fill="#77758A" d="M61.988,99.991c-0.037,1.293-0.705,1.955-1.995,1.995
	C58.979,99.642,59.625,98.958,61.988,99.991z"/>
<path fill-rule="evenodd" clip-rule="evenodd" fill="#888698" d="M92.989,117.984c0.001,0.668,0.002,1.336,0.003,2.005
	c-1.335,1.797-2.67,0.504-4.004-0.003C90.007,118.688,91.405,118.151,92.989,117.984z"/>
<path fill-rule="evenodd" clip-rule="evenodd" fill="#6E6B82" d="M97.975,102.996c-2.144,0.067-3.855-0.443-4.024-3.015
	c-0.001,0,0.088,0.014,0.088,0.014c0.408-0.534,0.612-1.212,1.155-1.649c2.003-2.22,4.313,1.665,6.329-0.326
	c1.191-0.842,2.834-0.369,3.968-1.385c2.07-2.268,4.415-3.775,7.666-2.803c0.698,0.148,1.339,0.416,1.88,0.893
	c0.247,0.424,0.288,0.873,0.152,1.342c-0.325,0.347-0.712,0.602-1.157,0.771c-0.98,0.266-1.949,0.253-3.537-0.41
	c2.158,1.227,3.443,2.339,3.209,4.395c-0.143,0.443-0.385,0.827-0.712,1.159c-0.002,0.327-0.003,0.654-0.004,0.982
	c-2.837-4.929-2.837-4.929-7.998-0.972C102.869,103.846,100.613,104.761,97.975,102.996z"/>
<path fill-rule="evenodd" clip-rule="evenodd" fill="#5E5B74" d="M114.003,95.998c0.327,0,0.655-0.003,0.983-0.009
	c0.843-0.794,1.625-1.769,2.986-0.979c0.025,0.655,0.05,1.312,0.076,1.966c-0.082,0.813-0.263,1.577-1.063,2.009
	c-0.753-0.043-1.473,0.571-2.25,0.111C113.668,98.258,112.835,97.363,114.003,95.998z"/>
<path fill-rule="evenodd" clip-rule="evenodd" fill="#67647B" d="M115.982,98.968c0.344-0.563,0.678-0.546,1.003,0.018
	c1.703,5.046-2.512,2.198-3.994,2.995c-0.002-0.331-0.003-0.661-0.003-0.991C113.732,99.94,115.043,99.729,115.982,98.968z"/>
<path fill-rule="evenodd" clip-rule="evenodd" fill="#7F7C90" d="M64.996,99.977c0.663,0.339,1.326,0.678,1.99,1.017
	c-0.015,0.823-0.197,1.563-0.991,1.999C63.396,102.738,64.442,101.275,64.996,99.977z"/>
<path fill-rule="evenodd" clip-rule="evenodd" fill="#9391A2" d="M141.949,90.954c-0.66,0.006-1.321,0.013-1.981,0.02
	c-2.094-3.326,1.531-4.277,2.606-6.288c0.663-0.367,1.367-0.455,2.101-0.292c1.625,0.541,2.02,2.283,3.188,3.273
	c0.516,0.376,0.986,0.795,1.263,1.388c-0.059,0.296-0.146,0.582-0.262,0.86C146.581,90.416,144.021,89.06,141.949,90.954z"/>
<path fill-rule="evenodd" clip-rule="evenodd" fill="#868497" d="M149.125,89.055c-0.712-0.025-1.424-0.051-2.136-0.075
	c-0.882-1.244-0.42-2.282,0.74-2.852c1.83-0.9,1.508,1.12,2.179,1.807c0,0,0.164,0.114,0.165,0.114
	C149.757,88.385,149.441,88.72,149.125,89.055z"/>
<path fill-rule="evenodd" clip-rule="evenodd" fill="#68657D" d="M74.995,87.983c0.265,0.774,2.695,2.071-0.489,2.012
	c-0.971-0.019-1.912,0.066-2.517,0.991c-2.849,1.491-3.76,0.107-3.807-2.563c0.288-0.872,0.638-1.672,1.809-1.436
	C71.942,85.897,73.769,85.429,74.995,87.983z"/>
<path fill-rule="evenodd" clip-rule="evenodd" fill="#57546E" d="M69.991,86.988c-0.333,0.335-0.665,0.67-0.997,1.005
	c-1.247,1.234-0.801,2.864-1.006,4.342c-0.238,0.904-0.605,1.7-1.645,1.917c-1.551-0.554-2.436-1.879-3.491-3.011
	c-0.165-0.439-0.117-0.857,0.143-1.25C64.283,86.558,66.445,85.161,69.991,86.988z"/>
<path fill-rule="evenodd" clip-rule="evenodd" fill="#53506A" d="M56.312,82.312c1.44,0.784,3.264,1.863,3.146,3.416
	c-0.158,2.101-2.662,1.442-4.056,1.751c-1.624,0.36-1.373-1.413-1.359-2.485C54.061,83.563,54.568,82.421,56.312,82.312z"/>
<path fill-rule="evenodd" clip-rule="evenodd" fill="#5B5871" d="M61.996,95.993c-0.795-0.438-0.981-1.179-1.005-2.003
	c0.001-0.667,0.001-1.334,0.001-2.001c0.373-0.25,0.769-0.293,1.187-0.135c1.078,1.293,2.517,2.11,3.942,2.951
	c0.163,0.419,0.129,0.816-0.13,1.188C64.66,95.993,63.328,95.993,61.996,95.993z"/>
<path fill-rule="evenodd" clip-rule="evenodd" fill="#605D76" d="M61.984,91.985c-0.331,0.001-0.661,0.002-0.992,0.004
	c-1.081-0.779-0.857-1.606,0.004-2.338c0.735-0.625,1.452-0.481,1.999,0.34c-0.003,0.332-0.005,0.663-0.005,0.995
	C62.878,91.543,62.543,91.877,61.984,91.985z"/>
<path fill-rule="evenodd" clip-rule="evenodd" fill="#828093" d="M97.983,50c0.001-0.334,0.001-0.668,0.002-1.003
	c0.671,0.331,1.343,0.662,2.015,0.994c2.479,1.185,1.869,2.974,1.173,4.996c-0.583,1.695-2.058,3.769,0.815,4.992
	c0,0.337,0,0.674,0,1.009c-2.279,1.275-3.303-1.179-4.983-1.674C95.115,55.979,98.934,53.239,97.983,50z"/>
<path fill-rule="evenodd" clip-rule="evenodd" fill="#6D6A81" d="M99.987,79.987c-0.485,1.348-3.152,0.611-2.706,3.027
	c2.824,0.716,6.041-1.23,8.696,0.987c-0.815,0.999-2.009,1.071-3.239,1.3c1.584,0.633,2.52-0.071,3.239-1.303
	c0.342-0.007,0.684-0.013,1.025-0.02c1.074-0.975,2.273-1.1,3.574-0.53c0.932,0.399,1.604,1.016,1.713,2.087
	c-0.393,1.622-2.517,1.319-3.049,2.759c0.12,1.422,1.276,1.261,2.194,1.447c1.582,0.229,3.373,0.052,4.043,2.059
	c0.011,0.478-0.107,0.919-0.373,1.32c-1.122,0.533-2.269,0.198-3.408,0.1c-2.003-0.229-4.025,0.642-6.023-0.084
	c-1.338-0.279-2.603-0.733-3.693-1.587c-0.931-0.837-1.4-2.162-2.738-2.572c-0.408-0.143-0.804-0.305-1.206-0.458
	c-3.386-0.526-5.358-2.938-7.269-5.434c-0.086-2.142,2.074-1.952,3.072-2.975c0.65-0.588,1.286-1.194,2.077-1.602
	c0.648-0.245,1.309-0.273,1.982-0.121C98.779,78.679,99.548,79.12,99.987,79.987z"/>
<path fill-rule="evenodd" clip-rule="evenodd" fill="#5D5A74" d="M110.976,83.977c-1.324,0.001-2.649,0.002-3.973,0.002
	c-0.533-3.334-3.624-1.173-5.404-2.596c3.184-4.099,5.648,1.119,8.388,0.593c0.342-0.303,0.674-0.293,0.997,0.029
	c0.003,0.333,0.007,0.666,0.011,0.999c0.248,0.222,0.328,0.439,0.24,0.653C111.147,83.871,111.061,83.977,110.976,83.977z"/>
<path fill-rule="evenodd" clip-rule="evenodd" fill="#767388" d="M99.987,79.987c-0.82-0.021-1.563-0.198-2.004-0.988
	c3.106-4.449,4.063-4.743,8.614-2.648c0.135,0.214,0.267,0.433,0.398,0.651C104.659,77.997,102.323,78.992,99.987,79.987z"/>
<path fill-rule="evenodd" clip-rule="evenodd" fill="#77748A" d="M105.012,73.009c1.661-0.003,3.322-0.006,4.982-0.009
	c-0.926,1.388,0.687,4.68-2.998,4.001c0,0.001-0.021-0.022-0.021-0.022C105.717,75.954,104.185,75.065,105.012,73.009z"/>
<path fill-rule="evenodd" clip-rule="evenodd" fill="#6C6A81" d="M110.983,82.005c-0.332-0.01-0.665-0.02-0.997-0.028
	c-0.53-1.102-0.717-2.03,1.008-1.992C112.014,80.665,111.986,81.337,110.983,82.005z"/>
<path fill-rule="evenodd" clip-rule="evenodd" fill="#58546E" d="M132.002,92.017c-0.341,0.322-0.681,0.643-1.021,0.964
	c-2.177-0.137-4.417-0.166-5.028-2.961c0.105-0.182,0.211-0.363,0.313-0.55c0.293-0.314,0.616-0.593,0.962-0.846
	c1.078-0.786,2.19-1.498,3.563-1.656c1.201-0.1,2.326,0.041,3.185,1.013c0.003,0.336,0.006,0.672,0.008,1.007
	c-0.055,0.196-0.11,0.393-0.161,0.592C133.373,90.51,132.713,91.283,132.002,92.017z"/>
<path fill-rule="evenodd" clip-rule="evenodd" fill="#4E4A66" d="M133.974,87.98c-1.33,0.003-2.66,0.007-3.991,0.011
	c-1.203-0.61-1.956-1.686-1.072-2.775c1.08-1.331,2.667-0.862,4.075-0.229c0.334,0.001,0.667,0.001,1-0.003
	C135.54,85.988,134.27,86.982,133.974,87.98z"/>
<path fill-rule="evenodd" clip-rule="evenodd" fill="#78768B" d="M136.974,91.978c-0.977,0.027-1.952,0.055-2.928,0.082
	c0,0.001-0.082-0.094-0.082-0.094c-0.231-0.227-0.337-0.475-0.315-0.742c0.021-0.279,0.063-0.418,0.122-0.419
	c1.349-1.333,3.309-1.992,4.22-3.813c0.329-0.001,0.657-0.011,0.985-0.031c0-0.001,0.014,0.06,0.014,0.06
	c1.083,1.688,0.411,2.944-0.987,4.022C137.659,91.355,137.316,91.667,136.974,91.978z"/>
<path fill-rule="evenodd" clip-rule="evenodd" fill="#67657C" d="M137.99,86.992c-0.291,2.377-1.645,3.693-4.002,4.003
	c-0.536-0.668-0.604-1.338-0.007-2.009v0.001C135.318,88.323,136.654,87.657,137.99,86.992z"/>
<path fill-rule="evenodd" clip-rule="evenodd" fill="#54516C" d="M132.985,84.986c-1.753,0.249-4.887-0.881-3.003,3.005
	c-1,0.665-2,1.331-3,1.996c-1.257-1.066-0.633-3.348-2.577-3.978c-0.612-0.943-1.408-1.859-0.421-3.019
	c1.157-0.723,0.967-1.892,0.992-2.989c-0.286-1.64-0.863-3.473,2.006-3.01C127.367,80.871,129.364,83.539,132.985,84.986z"/>
<path fill-rule="evenodd" clip-rule="evenodd" fill="#737086" d="M110.976,83.977c0.009-0.324,0.015-0.648,0.019-0.973
	C114.89,82.378,118.195,85,121.977,85c-1.406,1.647-3.321,0.749-5.006,1.002c-1.664,1.271-3.325,1.539-4.977-0.022
	C111.655,85.313,111.315,84.645,110.976,83.977z"/>
<path fill-rule="evenodd" clip-rule="evenodd" fill="#58546E" d="M123.984,82.99c0.334,1,0.668,2,1.003,3.001
	c1.102,1.137,1.297,2.502,1.003,3.99c0,0-0.037,0.038-0.038,0.038c-2.72-0.651-2.265-3.181-2.97-5.024
	C122.483,83.911,122.222,82.944,123.984,82.99z"/>
<path fill-rule="evenodd" clip-rule="evenodd" fill="#6F6C82" d="M120.004,80.018c0.996-0.01,1.992-0.021,2.988-0.03
	c-0.146,1.011-0.406,1.95-1.723,1.802C120.238,81.674,120.137,80.816,120.004,80.018z"/>
<path fill-rule="evenodd" clip-rule="evenodd" fill="#817E92" d="M105.012,73.009c0.654,1.324,1.309,2.647,1.963,3.97
	c-3.604-2.024-6.23,0.296-8.991,2.02c-0.662,0-1.323-0.001-1.984-0.001c-2.289,1.65-3.875,1.622-3.983-1.721
	c-0.052-1.603-0.061-3.21,0.049-4.809c0.063-0.493,0.233-0.953,0.5-1.365c0.188-0.129,0.384-0.267,0.565-0.4
	c0.216-0.008,0.447-0.019,0.667-0.033c1.136,0.394,1.678,1.709,2.936,1.919c0.353-0.019,0.689-0.09,0.997-0.262
	c0.58-1.266-0.019-2.378-0.403-3.513c-0.193-0.411-0.339-0.834-0.465-1.27c-0.275-3.003,2.134-2.39,3.779-2.822
	c1.126-0.067,2.281-0.43,3.347,0.27c1.089,0.051,2.27-0.167,2.974,1.014c-0.742,0.64-0.75,1.291-0.035,1.956
	c0.017,0.68,0.033,1.359,0.05,2.039c-0.301,0.392-0.695,0.649-1.155,0.819c-1.076,0.397-2.144,0.013-3.216-0.026
	c1.177,0.315,1.95,1.068,2.381,2.194L105.012,73.009z"/>
<path fill-rule="evenodd" clip-rule="evenodd" fill="#79768B" d="M96.996,58.984c1.664,0.668,3.328,1.336,4.992,2.003
	c1.691,1.186,3.352,0.706,5.177,0.189c2.192-0.622,4.029-0.139,3.833,2.805c-2.341-3.057-4.676-1.593-7.011,0.009
	c-1.074,0.482-1.616-0.096-1.993-1.001c-1.324-1.579-3.883-1.089-5.013-2.993c-0.277-0.229-0.368-0.456-0.271-0.68
	C96.807,59.095,96.901,58.984,96.996,58.984z"/>
<path fill-rule="evenodd" clip-rule="evenodd" fill="#8F8D9E" d="M104.985,72.987c-1.537-0.974-3.848-1.159-3.854-4.301
	c1.88,1.596,3.886,1.275,5.846,1.313c0.671,0.33,1.342,0.66,2.012,0.99C108.122,72.594,105.861,71.402,104.985,72.987z"/>
<path fill-rule="evenodd" clip-rule="evenodd" fill="#68657D" d="M101.994,62.989c0.665,0.334,1.329,0.668,1.993,1.001
	c0,0.334,0,0.668,0,1.001c-0.994,0.33-1.987,0.66-2.981,0.989c-1.103-0.735-2.158-1.487-1.02-2.988
	C100.656,62.991,101.325,62.99,101.994,62.989z"/>
<path fill-rule="evenodd" clip-rule="evenodd" fill="#898799" d="M106.926,67.961c-0.972-0.118-2.095-0.122-2.123-1.43
	c-0.004-0.16,1.404-0.351,2.158-0.526C106.949,66.658,106.938,67.309,106.926,67.961z"/>
<path fill-rule="evenodd" clip-rule="evenodd" fill="#817E92" d="M138.002,91.042c0.616-1.271,1.146-2.562,0.987-4.022
	c3.069-1.659,1.658-4.582,1.978-7.016c0.729,0.118,1.729-0.394,2.08,0.506c0.122,0.312-0.676,0.982-1.054,1.489
	c0.279,0.243,0.517,0.521,0.717,0.833c0.303,0.695,0.361,1.425,0.297,2.17c-1.05,1.972-3.543,3.209-3.039,5.97
	C139.313,90.997,138.657,91.019,138.002,91.042z"/>
<path fill-rule="evenodd" clip-rule="evenodd" fill="#8C8A9C" d="M141.991,82.977c-0.001-0.326,0-0.651,0.002-0.978
	c1.003-0.008,2.006-0.017,3.009-0.025c1.324-0.002,2.648-0.003,3.973-0.005c0.312,1.988,0.623,3.977,0.934,5.966
	c-1.793-1.941-2.729-1.491-2.919,1.044c-0.672-1.325-1.345-2.65-2.018-3.976C144.522,83.528,142.645,84.154,141.991,82.977z"/>
<path fill-rule="evenodd" clip-rule="evenodd" fill="#B7B6C1" d="M112.978,111.991c-0.831,0.021-1.577,0.211-2.013,1.017
	c-1.914,0.365-1.891-1.507-2.754-2.362c-0.64-0.936-1.42-1.771-1.971-2.773c-0.252-1.129-1.508-2.547,0.826-2.95
	C109.036,107.278,111.007,109.635,112.978,111.991z"/>
<path fill-rule="evenodd" clip-rule="evenodd" fill="#B9B7C2" d="M107.066,104.922c-1.248,0.998,0.232,2.063-0.078,3.084
	c-0.354,0.307-0.768,0.447-1.233,0.447c-0.72-0.178-1.183-0.642-1.466-1.31c-0.216-0.673-0.234-1.352-0.064-2.038
	c0.163-0.438,0.438-0.795,0.819-1.068C105.858,104.011,106.595,104.164,107.066,104.922z"/>
<path fill-rule="evenodd" clip-rule="evenodd" fill="#8D8B9D" d="M105.044,104.037c-0.055,0.306-0.091,0.612-0.107,0.922
	c-0.657,0.879-1.247,2.052-2.446,0.556c-0.307-1.961-0.097-3.422,2.494-2.564c0,0,0.021,0.097,0.021,0.098
	C105.005,103.379,105.018,103.708,105.044,104.037z"/>
<path fill-rule="evenodd" clip-rule="evenodd" fill="#7B788D" d="M104.984,102.95c-1.96,0.154-2.036,1.557-2.006,3.028
	c-2.23,3.143-2.576-0.971-3.974-1.032c-0.333-0.325-0.666-0.65-0.999-0.977c-0.008-0.324-0.019-0.649-0.031-0.974
	c2.338-0.335,4.677-0.67,7.015-1.005C104.986,102.311,104.985,102.631,104.984,102.95z"/>
<path fill-rule="evenodd" clip-rule="evenodd" fill="#79778C" d="M103.002,123.98c-0.023-0.677-0.048-1.353-0.071-2.027
	c-0.297-0.365-0.421-0.782-0.38-1.25c1.225-1.612-0.844-5.666,3.611-4.894c0.468,1.429,0.451,3.063,1.743,4.147
	c0,0,0.214,0.082,0.216,0.083c-0.056,0.292-0.089,0.587-0.099,0.884c1.27,2.225,0.929,4.669,0.96,7.063
	c0,0.332,0.001,0.664,0.003,0.996c0.01,0.991,0.019,1.981,0.028,2.972c-0.336,0.004-0.673,0.008-1.009,0.011
	c-0.691-1.985,1.561-4.961-2.013-5.977c-0.188-0.075-0.377-0.151-0.566-0.225C104.755,124.984,103.806,124.581,103.002,123.98z"/>
<path fill-rule="evenodd" clip-rule="evenodd" fill="#6C6980" d="M107.905,119.957c-2.623-0.337-1.721-2.375-1.881-3.9
	c0.295-0.398,0.611-0.397,0.946-0.051c0,0-0.028,0.039-0.028,0.04C107.264,117.351,107.584,118.653,107.905,119.957z"/>
<path fill-rule="evenodd" clip-rule="evenodd" fill="#79778C" d="M102.987,128.983c0.335-0.997,0.669-1.995,1.003-2.993l0.004-0.003
	c0.66-0.625,1.323-0.583,1.988-0.007l0.01,0.009C106.197,128.198,105.193,129.195,102.987,128.983z"/>
<path fill-rule="evenodd" clip-rule="evenodd" fill="#9290A1" d="M106.971,116.006c-0.316-0.004-0.632,0.013-0.946,0.05
	c-3.379,0.181-0.405,4.284-3.039,4.924c-1.257-0.738-1.88-2.107-2.988-2.992l-0.013-0.003c-0.004-0.338-0.007-0.676-0.011-1.014
	c-0.84-0.977-0.699-1.959-0.017-2.943c0.011-0.63,0.022-1.26,0.033-1.889c0,0.002-0.002-0.275-0.002-0.275
	c0.396-0.261,0.809-0.277,1.236-0.091c1.524,1.86,3.794,1.623,5.828,2.06c0.291,0.402,0.268,0.788-0.064,1.155
	C106.982,115.326,106.977,115.666,106.971,116.006z"/>
<path fill-rule="evenodd" clip-rule="evenodd" fill="#9391A2" d="M106.988,114.987c-0.004-0.342-0.008-0.683-0.013-1.023
	c-2.509-1.208-3.976-2.711-1.512-5.327c1.76-0.31,2.546,1.1,3.59,2.046c0.517,1.174,0.479,2.672,1.917,3.315l-0.022,0.021
	C109.898,115.447,108.35,114.833,106.988,114.987z"/>
<path fill-rule="evenodd" clip-rule="evenodd" fill="#A6A5B2" d="M110.971,113.998c-1.992-0.122-2.004-1.556-1.987-3.007
	c-0.305-0.222-0.405-0.444-0.304-0.667c0.101-0.222,0.202-0.333,0.305-0.333c0.66,1.006,1.321,2.011,1.981,3.016
	C110.979,113.338,110.98,113.668,110.971,113.998z"/>
<path fill-rule="evenodd" clip-rule="evenodd" fill="#67647C" d="M111.994,85.979c1.659,0.008,3.318,0.015,4.977,0.022
	c-0.021,1.744,0.953,1.477,2.029,1.002c0.797,0.99,0.797,1.979,0,2.969c-0.669,0.008-1.338,0.016-2.007,0.023
	c-0.223-0.054-0.445-0.107-0.669-0.156c-2.368-2.471-5.64-0.886-8.341-1.856C108.327,85.328,110.423,86.178,111.994,85.979z"/>
<path fill-rule="evenodd" clip-rule="evenodd" fill="#5D5A74" d="M119,89.973c0-0.99,0-1.979-0.001-2.969
	c1.858-0.131,3.664,0.427,3.289,2.508C121.909,91.612,120.11,89.644,119,89.973z"/>
<path fill-rule="evenodd" clip-rule="evenodd" fill="#67647C" d="M114.99,92.986c-0.344-2.65-2.425-1.82-4.002-1.997
	c1.471-3.466,3.756-2.088,5.991-1.006l0.014,0.012c0.33,0.997,0.66,1.994,0.99,2.991C116.985,93.778,115.988,93.869,114.99,92.986z"
	/>
<path fill-rule="evenodd" clip-rule="evenodd" fill="#6A687F" d="M114.99,92.986c0.998,0,1.995,0,2.993,0
	c-0.003,0.675-0.007,1.349-0.011,2.023c-0.995,0.326-1.99,0.653-2.986,0.979c0-0.333,0-0.667,0-1
	c-0.062-0.666-0.67-1.33-0.007-1.998L114.99,92.986z"/>
<path fill-rule="evenodd" clip-rule="evenodd" fill="#615E76" d="M133.981,88.987c0.002,0.67,0.004,1.339,0.007,2.009
	c-0.004,0.324-0.012,0.647-0.023,0.972c-0.655,0.016-1.31,0.033-1.963,0.05C131.967,90.553,131.955,89.104,133.981,88.987z"/>
<path fill-rule="evenodd" clip-rule="evenodd" fill="#7C7A8E" d="M99.986,62.992c0.34,0.996,0.68,1.992,1.02,2.988
	c-0.993,0.69-4.03-1.684-3.02,2.014c-1.12,1.283-2.56,2.139-3.998,2.998h-0.5h-0.5c-1.438-2.296-0.894-4.261,0.998-6.003
	C95.925,64.138,97.683,62.743,99.986,62.992z"/>
<path fill-rule="evenodd" clip-rule="evenodd" fill="#727086" d="M96.996,58.984c-0.005,0.337-0.01,0.675-0.015,1.013
	c-1.784-1.762-0.683-4-0.99-6.004c1.801-1.333,0.504-2.665-0.002-3.997c0.665,0.001,1.329,0.003,1.994,0.005
	c0.752,1.806,2.682,3.568-0.212,5.349C96.502,56.132,97.118,57.731,96.996,58.984z"/>
<path fill-rule="evenodd" clip-rule="evenodd" fill="#767388" d="M93.986,64.988c-1.181,1.86-1.024,3.941-0.998,6.003
	c-1.459,2.19,0.552,4.994-1.256,7.123c-0.248-0.042-0.497-0.084-0.746-0.126c0.001-2,0.001-3.999,0.002-5.998
	C91.208,69.322,90.605,66.302,93.986,64.988z"/>
<path fill-rule="evenodd" clip-rule="evenodd" fill="#494662" d="M96.99,144.964c0.332-0.994,0.665-1.987,0.998-2.98
	c0.75,0.345,1.609,0.796,1.377,1.708C99.083,144.796,97.986,144.908,96.99,144.964z"/>
<path fill-rule="evenodd" clip-rule="evenodd" fill="#767388" d="M94.986,80.989c-0.855,1.611-3.136,0.392-3.988,2.008
	c2.391,3.436,3.844,7.245,4.673,11.337c0.341,1.685,0.57,3.257-0.688,4.661c-0.315,0.333-0.631,0.667-0.945,1
	c0.258-2.288-0.841-4.058-1.946-5.957c-1.521-2.615-2.713-1.532-4.084-0.045c-0.339-0.002-0.678-0.003-1.017-0.005
	c-0.84-1.331,1.486-2.667-0.007-3.996l-0.002,0.002c1.706-1.989,2.247-4.28,2.043-6.878c-0.153-1.949-0.363-4.064,1.962-5.128
	l0.006,0.004C91.839,79.638,93.382,80.354,94.986,80.989z"/>
<path fill-rule="evenodd" clip-rule="evenodd" fill="#5F5C75" d="M79.987,91.985c2.487-1.37,4.746-2.17,5.005,2.009
	c-2.162,3.506-5.646,2.993-8.974,2.95c-0.015-0.643-0.03-1.286-0.046-1.928c-0.727-0.79-1.038-1.697-0.785-2.765
	c0.187-0.471,0.455-0.891,0.803-1.26C77.236,91.667,78.533,92.141,79.987,91.985c0.2,0.292,0.354,0.479,0.465,0.564
	C80.363,92.444,80.209,92.257,79.987,91.985z"/>
<path fill-rule="evenodd" clip-rule="evenodd" fill="#636078" d="M66.995,91.986c-0.093-1.711,0.181-3.239,1.999-3.993
	c-0.213,2.21,0.783,3.21,2.995,2.994l0.004,0.004c0.546,0.511,0.641,1.139,0.484,1.833c-0.969,1.223-0.768,2.867-1.492,4.18
	c-0.666-0.006-1.332-0.012-1.997-0.018c-0.335-0.001-0.669-0.003-1.003-0.004C66.309,95.583,68.906,93.338,66.995,91.986z"/>
<path fill-rule="evenodd" clip-rule="evenodd" fill="#5C5972" d="M70.985,97.003c-0.52-1.552-2.259-3.411,1.007-4.014
	c0.904,0.395,1.59,0.899,1.021,2.034C72.684,96.038,73.088,97.805,70.985,97.003z"/>
<path fill-rule="evenodd" clip-rule="evenodd" fill="#5D5A73" d="M73.014,95.023c-0.34-0.678-0.681-1.356-1.021-2.034
	c0-0.666,0.001-1.332,0.001-1.999c1.332,0,2.665,0,3.997,0c0,0.333,0.001,0.666,0,1c-1.297,0.577-2.205,1.414-2.001,2.995
	C73.664,94.992,73.339,95.005,73.014,95.023z"/>
<path fill-rule="evenodd" clip-rule="evenodd" fill="#636078" d="M73.989,94.985c-0.312-1.652-0.849-3.456,2.001-2.995
	c-0.005,1.007-0.011,2.016-0.017,3.024C75.312,95.005,74.65,94.995,73.989,94.985z"/>
<path fill-rule="evenodd" clip-rule="evenodd" fill="#706D83" d="M86.983,89.993c1.821,1.329,0.508,2.663,0.007,3.996
	c-0.335-0.001-0.67-0.002-1.005-0.003C86.318,92.654,86.65,91.324,86.983,89.993z"/>
<path fill-rule="evenodd" clip-rule="evenodd" fill="#9492A3" d="M99.997,117.987c2.211-0.217,3.201,0.787,2.988,2.992
	c-0.008,0.325-0.025,0.65-0.054,0.974c-0.98-0.324-1.961-0.647-2.939-0.972c-0.004-0.663-0.007-1.326-0.011-1.988
	C99.986,118.657,99.991,118.322,99.997,117.987z"/>
<path fill-rule="evenodd" clip-rule="evenodd" fill="#747287" d="M101.986,125.986c-0.147,1.016-0.403,1.965-1.73,1.803
	c-1.03-0.126-1.13-0.99-1.26-1.794C99.993,125.992,100.989,125.989,101.986,125.986z"/>
<path fill-rule="evenodd" clip-rule="evenodd" fill="#7D7A8E" d="M105.982,125.98c-0.663,0.002-1.326,0.005-1.988,0.007
	c-0.331-0.669-0.662-1.338-0.992-2.007C104.449,123.972,105.887,123.975,105.982,125.98z"/>
<path fill-rule="evenodd" clip-rule="evenodd" fill="#777489" d="M99.957,114.027c0.005,0.98,0.011,1.962,0.017,2.943
	c-0.977,0-1.953,0-3.854,0C97.836,115.653,98.896,114.84,99.957,114.027z"/>
<path fill-rule="evenodd" clip-rule="evenodd" fill="#B7B5C1" d="M105.98,108.979c-2.401,2.208,0.588,3.339,0.996,4.985
	c-2.622,1.241-5.153,2.207-6.003-1.965c0.035-1.12-0.011-2.214-0.98-3.007c0-0.329,0.001-0.658,0.004-0.987
	c1.559-0.831,3.198-1.276,4.979-1.039c0.353,0.349,0.704,0.696,1.056,1.045c0.317,0.232,0.415,0.453,0.294,0.663
	C106.209,108.876,106.095,108.979,105.98,108.979z"/>
<path fill-rule="evenodd" clip-rule="evenodd" fill="#A2A0AF" d="M104.977,106.966c-1.521,1.01-3.236,1.097-4.98,1.039
	c-0.33-1.02-0.66-2.038-0.991-3.058c1.487-0.285,2.202,2.405,3.974,1.032c0.653-0.34,1.307-0.68,1.959-1.02
	C104.95,105.629,104.964,106.297,104.977,106.966z"/>
<path fill-rule="evenodd" clip-rule="evenodd" fill="#C0BFC9" d="M99.993,108.992c2.173,0.4,2.586,1.374,0.98,3.007
	c-0.335,0.006-0.664-0.039-0.985-0.135C99.989,110.906,99.991,109.949,99.993,108.992z"/>
<path fill-rule="evenodd" clip-rule="evenodd" fill="#5D5A73" d="M66.995,91.986c3.946,0.949,0.553,3.352,0.99,4.996
	c-0.82-0.016-1.559-0.198-1.994-0.989c-0.001-0.337-0.002-0.674-0.002-1.011c-0.253-0.223-0.337-0.443-0.251-0.663
	s0.171-0.329,0.257-0.329C66.79,93.552,66.97,92.807,66.995,91.986z"/>
<path fill-rule="evenodd" clip-rule="evenodd" fill="#66637B" d="M94.982,98.995c-0.134-3.988-1.02-7.834-2.944-11.301
	c-0.87-1.565-1.048-3.056-1.04-4.698c3.152,0.883,4.551,4.568,7.986,4.999c-2.063,1.754-1.552,4.153-1.672,6.637
	c-0.122,0.412,1.132-0.275,0.47-0.196c0-2.222,1.592-4.148,1.202-6.442c2.236-0.229,3.208,0.809,3.016,3.012
	c0.844,0.774,1.31,1.734,1.42,2.872c0.009,1.085-0.556,2.028-0.755,3.065c-0.115,0.408-0.332,0.753-0.655,1.028
	c-0.138,2.295-0.501,4.607-3.104,1.62C97.534,98.017,96.297,99.04,94.982,98.995z"/>
<path fill-rule="evenodd" clip-rule="evenodd" fill="#7A778C" d="M102.979,93.995c-1.144-0.729-0.953-1.895-0.979-2.991
	c1.329,0.328,2.657,0.656,3.986,0.984c1.674,2,0.788,4,0.003,6c-1.331,0.894-2.657,0.923-3.979-0.019
	c-0.013-0.327-0.024-0.654-0.033-0.981C100.873,95.51,104.219,95.521,102.979,93.995z"/>
<path fill-rule="evenodd" clip-rule="evenodd" fill="#726F85" d="M105.989,97.989c-0.001-2-0.002-4-0.003-6
	c2.001,0.735,4.002,0.051,6.003,0.002c0.76,0.856,1.75,1.634,0.999,2.995C109.646,93.634,107.734,95.617,105.989,97.989z"/>
<path fill-rule="evenodd" clip-rule="evenodd" fill="#6A687F" d="M115.982,98.968c-0.087,2.024-1.533,2.033-2.994,2.021
	c0.096-2.248-2.014-3.033-3.452-4.991c1.772,0,3.119,0,4.466,0C113.991,97.435,114.671,98.412,115.982,98.968z"/>
<path fill-rule="evenodd" clip-rule="evenodd" fill="#77758A" d="M112.988,94.985c-0.333-0.998-0.666-1.996-0.999-2.995
	c0.996,0.334,1.993,0.667,2.99,1c0.102,0.665,1.089,1.328,0.007,1.998C114.32,94.988,113.654,94.986,112.988,94.985z"/>
<path fill-rule="evenodd" clip-rule="evenodd" fill="#838194" d="M141.991,82.977c1.165,0.035,2.493-0.277,3.461,0.178
	c2.089,0.983,0.877,1.526-0.48,1.849c-0.655,0-1.311-0.001-1.966-0.002C142.198,84.563,142.004,83.816,141.991,82.977z"/>
<path fill-rule="evenodd" clip-rule="evenodd" fill="#4F4C67" d="M65.995,93.99c-0.003,0.33-0.005,0.661-0.006,0.992
	c-2.151,0.092-4.293,0.17-4.005-2.998c0.335-0.333,0.67-0.666,1.006-0.999C64.896,91.082,65.895,92.086,65.995,93.99z"/>
<path fill-rule="evenodd" clip-rule="evenodd" fill="#5E5B74" d="M116.979,89.984c-1.998,0.327-4.241-0.802-5.991,1.006
	c-1.838-0.166-4.294,0.286-3.005-3.005C111.361,86.944,114.91,85.139,116.979,89.984z"/>
<path fill-rule="evenodd" clip-rule="evenodd" fill="#817F92" d="M105.978,83.999c1.1,1.974,0.746,3.137-1.739,2.975
	c-1.707-0.111-3.838,0.643-4.702-1.581c-0.368-0.946,0.68-1.332,1.533-1.358c1.636-0.051,3.272-0.026,4.908-0.033V83.999z"/>
<path fill-rule="evenodd" clip-rule="evenodd" fill="#7C7A8E" d="M94.986,80.989c-2.139,0.077-4.293,0.175-3.994-2.997
	c2.252-1.881-0.258-5.12,1.996-7.001c0,1.979,0.158,3.974-0.037,5.934c-0.275,2.782,1.359,2.379,3.048,2.072
	C95.661,79.661,95.324,80.325,94.986,80.989z"/>
<path fill-rule="evenodd" clip-rule="evenodd" fill="#504D68" d="M125.99,89.981c-0.688-1.241-1.151-2.539-1.004-3.99
	c5.525-1.096,0.087,3.285,1.996,3.996C126.652,89.988,126.321,89.986,125.99,89.981z"/>
<path fill-rule="evenodd" clip-rule="evenodd" fill="#78768B" d="M93.988,70.991c0.149-2.577,1.844-3.094,3.998-2.998v-0.001
	c0.633,2,1.067,3.999,0.001,5.998c-0.333,0-0.666,0-0.999,0C95.756,73.223,94.75,72.229,93.988,70.991L93.988,70.991z"/>
<path fill-rule="evenodd" clip-rule="evenodd" fill="#7C7A8E" d="M97.987,73.991c0-2,0-3.999-0.001-5.998
	C98.54,69.992,101.373,71.991,97.987,73.991z"/>
<path fill-rule="evenodd" clip-rule="evenodd" fill="#7C7A8E" d="M93.988,70.991c1.348,0.653,2.347,1.653,3,3
	C95.083,73.897,94.083,72.897,93.988,70.991z"/>
<path fill-rule="evenodd" clip-rule="evenodd" fill="#A2A0AF" d="M105.98,108.979c0.005-0.323,0.021-0.646,0.051-0.968
	c0.319,0.006,0.638,0.004,0.957-0.005c0.957,0.369,1.608,1.045,1.996,1.985c0.001,0.334,0,0.667-0.001,1
	C107.982,110.32,106.981,109.649,105.98,108.979z"/>
<path fill-rule="evenodd" clip-rule="evenodd" fill="#595670" d="M79.987,91.985c1.172,0.306,2.964-0.732,3.392,1.033
	c0.244,1.008-1.187,1.598-2.097,1.633C79.131,94.733,79.394,93.381,79.987,91.985L79.987,91.985z"/>
<path fill-rule="evenodd" clip-rule="evenodd" fill="#514E69" d="M98.984,87.993c0.929,1.188,3.233,2.52,1.191,3.923
	c-2.567,1.762-1.25,3.392-0.077,5.813c-4.948-1.912-3.346-6.105-4.463-8.9C95.235,87.83,97.786,88.248,98.984,87.993
	C98.984,87.995,98.984,87.993,98.984,87.993z"/>
<path fill-rule="evenodd" clip-rule="evenodd" fill="#6D6A81" d="M102.979,93.995c2.016,1.784-0.873,1.928-1.002,2.994
	C99.993,95.215,102.854,95.063,102.979,93.995z"/>
</svg>
