<?xml version="1.0" standalone="no"?>
<!DOCTYPE svg PUBLIC "-//W3C//DTD SVG 20010904//EN"
 "http://www.w3.org/TR/2001/REC-SVG-20010904/DTD/svg10.dtd">
<svg version="1.0" xmlns="http://www.w3.org/2000/svg"
 width="985.000000pt" height="115.000000pt" viewBox="0 0 985.000000 115.000000"
 preserveAspectRatio="xMidYMid meet">
<metadata>
Created by potrace 1.16, written by Peter Selinger 2001-2019
</metadata>
<g transform="translate(0.000000,115.000000) scale(0.100000,-0.100000)"
fill="#000000" stroke="none">
<path d="M910 1124 c0 -4 7 -12 16 -18 12 -9 13 -17 5 -39 -10 -26 -9 -28 9
-22 11 4 19 2 18 -3 -2 -5 7 -23 19 -39 31 -43 89 -57 205 -49 51 4 142 10
201 14 88 6 110 10 118 25 16 28 68 50 103 43 23 -4 27 -3 16 4 -8 6 -28 10
-45 9 -39 -1 -76 11 -69 22 3 5 15 9 27 10 12 0 16 3 10 6 -7 2 -13 12 -13 21
0 15 -2 15 -10 2 -8 -13 -11 -12 -24 5 -14 18 -15 19 -16 2 0 -10 -5 -15 -10
-12 -6 4 -7 12 -3 18 4 8 1 7 -9 -1 -11 -9 -18 -10 -23 -2 -7 11 -525 15 -525
4z"/>
<path d="M2552 1114 c-13 -15 -7 -38 8 -29 4 2 10 -8 13 -23 3 -15 0 -30 -6
-34 -8 -5 -4 -8 9 -8 12 0 25 -10 32 -25 l12 -25 504 0 505 0 15 22 c21 30 20
65 -2 79 -12 8 -17 20 -14 35 l4 24 -533 0 c-458 -1 -536 -3 -547 -16z"/>
<path d="M4532 1118 c-17 -17 -15 -38 3 -38 19 0 20 -19 1 -26 -20 -8 -8 -34
15 -34 10 0 19 -7 19 -15 0 -21 33 -35 84 -35 60 0 76 8 76 36 0 16 8 28 23
34 20 8 20 9 2 10 -24 1 -67 30 -44 30 11 0 12 2 1 9 -8 4 -13 11 -13 15 1 3
1 9 1 14 0 4 -29 9 -64 10 -55 3 -65 1 -69 -15 -4 -16 -5 -17 -6 0 -1 20 -12
22 -29 5z"/>
<path d="M5379 1128 c-8 -33 -4 -68 8 -68 11 0 11 -4 3 -20 -8 -16 -8 -20 3
-20 8 0 22 -11 31 -25 l16 -25 325 0 c310 0 325 1 335 19 16 31 12 63 -12 89
-13 14 -17 22 -10 18 6 -4 12 -2 12 3 0 6 -5 11 -11 11 -5 0 -7 5 -4 10 4 7
-113 10 -344 10 -193 0 -351 -1 -352 -2z"/>
<path d="M6695 1108 c-7 -32 -3 -68 9 -68 5 0 7 -2 4 -5 -3 -3 6 -19 20 -35
25 -28 31 -30 97 -30 83 0 115 16 115 59 0 17 -7 31 -16 35 -13 5 -14 9 -3 22
10 13 9 16 -9 21 -12 3 -22 9 -22 14 0 5 -43 9 -95 9 -90 0 -95 -1 -100 -22z"/>
<path d="M9531 1114 c4 -44 -2 -64 -18 -65 -14 0 -15 -2 -3 -6 21 -9 36 -26
44 -50 4 -11 15 -28 26 -38 19 -17 20 -32 20 -382 l0 -363 -4668 0 -4668 0
-22 45 c-12 25 -29 48 -37 51 -8 4 -15 16 -15 29 0 18 -5 23 -25 21 -14 0 -25
-5 -25 -9 0 -5 -17 2 -37 14 -20 13 -33 17 -28 9 6 -10 4 -12 -8 -7 -24 9 -28
-17 -30 -194 l-2 -154 4900 0 4900 0 3 544 c1 353 -1 548 -8 555 -5 5 -75 12
-155 14 -137 4 -145 4 -144 -14z"/>
</g>
</svg>
