<?xml version="1.0" standalone="no"?>
<!DOCTYPE svg PUBLIC "-//W3C//DTD SVG 20010904//EN"
 "http://www.w3.org/TR/2001/REC-SVG-20010904/DTD/svg10.dtd">
<svg version="1.0" xmlns="http://www.w3.org/2000/svg"
 width="512.000000pt" height="512.000000pt" viewBox="0 0 512.000000 512.000000"
 preserveAspectRatio="xMidYMid meet">
<metadata>
Created by potrace 1.15, written by Peter Selinger 2001-2017
</metadata>
<g transform="translate(0.000000,512.000000) scale(0.100000,-0.100000)"
fill="#000000" stroke="none">
<path d="M3973 4936 c-176 -43 -308 -179 -354 -366 -41 -162 7 -500 87 -623
67 -103 184 -103 388 0 236 118 382 257 427 405 32 105 25 239 -18 331 -93
197 -317 304 -530 253z m130 -90 c-1 -18 2 -26 10 -23 7 2 11 14 10 26 -2 16
3 21 23 21 14 0 23 -4 20 -9 -3 -4 5 -6 19 -4 20 4 23 2 18 -18 -5 -18 -3 -21
10 -16 10 4 24 10 34 14 11 4 14 3 9 -5 -5 -8 -2 -10 8 -6 10 4 18 -1 22 -10
9 -23 -2 -32 -20 -17 -12 10 -22 10 -49 0 -44 -15 -71 -6 -62 21 4 12 2 20 -5
20 -6 0 -9 -4 -6 -9 9 -14 -16 -29 -54 -34 -19 -2 -34 -9 -32 -16 1 -6 -2 -11
-8 -11 -5 0 -10 4 -10 9 0 5 -11 8 -25 5 -28 -5 -30 -1 -15 27 12 21 1 26 -18
7 -9 -9 -12 -8 -12 8 0 28 19 44 51 44 22 0 29 -7 38 -32 9 -26 14 -30 21 -18
5 8 5 16 1 18 -5 2 -7 12 -4 23 8 29 28 17 26 -15z m-120 -707 c9 -30 28 -72
41 -92 l24 -36 -31 -10 c-39 -14 -47 -6 -77 74 -32 87 -40 248 -14 295 l18 35
12 -105 c6 -58 18 -130 27 -161z"/>
<path d="M812 4444 c-55 -39 -52 98 -52 -2086 0 -1845 1 -2015 16 -2037 9 -13
32 -29 50 -37 29 -12 34 -19 34 -48 0 -44 32 -83 78 -96 49 -13 1059 -13 1252
0 263 19 504 81 712 185 97 48 156 85 305 187 112 77 309 310 413 487 394 675
399 1772 11 2449 -62 108 -220 332 -309 435 -223 261 -576 463 -939 536 -182
37 -279 41 -920 41 -553 0 -631 -2 -651 -16z m576 -49 c-3 -3 -81 -43 -174
-89 -93 -46 -220 -111 -281 -144 -92 -48 -113 -57 -113 -42 0 17 45 46 234
151 153 85 181 102 201 115 18 13 145 21 133 9z m487 -3 c-22 -19 -430 -204
-555 -252 -189 -73 -450 -160 -478 -160 -52 0 -12 35 133 116 83 46 206 108
275 138 69 30 177 80 240 110 l115 55 140 0 c76 1 135 -3 130 -7z m328 -13
c59 -7 109 -15 111 -18 5 -8 -544 -277 -675 -331 -52 -22 -90 -40 -86 -40 18
0 248 70 293 89 53 24 61 22 44 -8 -6 -12 -8 -21 -5 -21 3 0 85 40 183 88 335
168 398 195 429 187 26 -6 22 -10 -62 -53 -92 -48 -236 -156 -234 -176 0 -7 3
-6 6 2 2 6 10 9 15 6 7 -5 8 -2 3 6 -6 10 -4 12 9 7 9 -4 15 -3 11 2 -3 5 23
26 57 47 35 21 90 55 122 77 32 22 56 35 52 29 -3 -6 -52 -41 -109 -79 -56
-37 -106 -73 -112 -79 -23 -26 -226 -154 -236 -149 -5 4 -8 1 -7 -6 2 -6 -3
-14 -11 -17 -9 -3 -11 0 -6 9 5 8 4 11 -1 6 -5 -5 -9 -13 -9 -18 0 -5 -20 -21
-45 -35 -34 -19 -39 -21 -20 -5 14 11 28 21 33 21 4 0 6 5 5 12 -2 6 26 34 62
61 36 28 64 55 62 60 -2 5 4 7 13 3 9 -3 14 -2 10 3 -3 5 17 26 45 46 27 20
50 38 50 40 0 4 -449 -242 -563 -308 -51 -30 -119 -69 -152 -87 -33 -18 -105
-62 -160 -97 -107 -70 -103 -74 35 -30 70 23 110 28 110 15 0 -5 -68 -54 -152
-109 -84 -55 -155 -102 -158 -106 -3 -3 9 -3 25 0 l30 5 -25 -17 c-13 -9 -78
-53 -143 -99 -65 -46 -141 -97 -168 -114 -28 -17 -48 -33 -45 -35 3 -3 30 6
60 20 31 14 56 25 56 23 0 -2 -27 -20 -60 -40 -75 -47 -79 -59 -5 -17 77 44
82 38 7 -9 -34 -22 -64 -40 -65 -40 -2 0 -4 16 -5 35 -2 27 3 38 23 51 14 9
35 29 46 45 l20 28 -46 -25 c-25 -14 -45 -21 -45 -15 0 13 140 105 162 105 9
0 15 3 12 7 -2 4 97 74 221 155 124 81 223 150 220 152 -2 3 -10 0 -17 -6 -7
-6 -73 -46 -146 -91 -73 -44 -202 -128 -288 -186 -86 -58 -158 -104 -161 -102
-2 3 34 34 80 70 46 36 115 94 153 129 38 35 86 77 107 94 l37 30 -97 -13
c-53 -7 -98 -11 -100 -9 -2 2 21 18 52 36 31 18 54 34 52 36 -2 2 -55 -9 -118
-25 -178 -45 -169 -44 -169 -22 0 23 12 32 223 175 88 58 164 103 169 99 6 -3
8 -1 5 4 -4 7 31 31 85 59 73 37 88 49 73 54 -19 7 -19 7 3 19 12 7 20 16 17
21 -5 8 29 38 88 75 51 33 27 5 -28 -31 -30 -21 -53 -39 -51 -42 3 -2 98 57
213 131 114 74 251 162 303 196 85 54 99 60 135 56 22 -2 89 -10 148 -16z
m611 -178 c6 -9 -305 -168 -457 -234 -42 -18 -74 -37 -70 -40 3 -4 -42 -30
-101 -58 -60 -28 -110 -48 -113 -46 -2 3 5 8 16 12 12 3 19 11 16 16 -3 5 2 6
11 2 13 -5 15 -3 9 7 -5 8 -4 11 3 6 5 -3 12 -2 14 3 5 15 108 62 120 55 6 -4
8 -3 5 3 -4 7 57 43 151 91 86 44 202 105 257 136 99 54 129 64 139 47z m78
-42 c25 -13 37 -24 31 -30 -21 -21 -850 -355 -859 -346 -3 3 769 393 784 396
1 1 21 -8 44 -20z m126 -82 c8 -10 -3 -18 -51 -36 -34 -13 -82 -35 -107 -49
-41 -23 -232 -154 -255 -175 -9 -8 57 26 339 174 l108 57 43 -30 43 -31 -135
-84 c-109 -69 -159 -93 -261 -128 -70 -23 -169 -60 -221 -80 l-94 -38 -55 18
c-51 18 -53 20 -31 29 76 31 213 104 274 147 39 27 75 49 79 49 12 0 98 62 92
67 -5 5 -93 -44 -114 -64 -7 -7 -19 -10 -26 -7 -15 6 -172 -52 -181 -66 -7
-11 88 21 134 45 18 9 35 15 37 13 2 -2 -79 -43 -179 -91 l-182 -87 -63 11
c-61 11 -62 12 -41 27 12 8 144 74 294 147 347 167 519 224 553 182z m221
-238 c-26 -20 -19 -25 11 -9 15 8 22 5 34 -12 31 -43 47 -33 -299 -195 -109
-51 -195 -89 -190 -85 6 5 62 39 125 77 111 66 283 185 276 192 -2 2 -59 -19
-127 -46 -68 -27 -125 -48 -127 -47 -7 8 300 156 310 150 7 -4 2 -14 -13 -25z
m94 -101 c12 -7 24 -14 26 -15 2 -2 -2 -10 -9 -18 -12 -14 -10 -15 15 -9 20 5
26 3 23 -6 -2 -7 -37 -26 -78 -42 -103 -39 -369 -128 -383 -128 -7 1 18 17 56
36 37 19 67 37 67 39 0 3 -14 -2 -31 -11 -48 -24 -25 1 29 32 26 15 50 32 54
38 6 9 182 93 201 95 4 1 17 -5 30 -11z m-1143 -72 c167 -33 271 -76 396 -165
178 -125 313 -311 387 -531 101 -303 110 -790 21 -1130 -30 -115 -114 -291
-182 -380 -101 -134 -260 -258 -408 -320 -150 -62 -224 -72 -566 -77 l-308 -5
0 1317 0 1318 288 -6 c208 -3 310 -9 372 -21z m1285 -96 c15 -30 15 -30 -21
-45 -20 -8 -40 -15 -45 -15 -5 0 -9 -11 -9 -24 0 -27 -41 -57 -140 -100 -51
-23 -175 -84 -330 -163 -5 -3 -40 50 -40 60 0 7 96 65 200 120 47 25 148 79
225 121 77 42 141 76 142 76 1 0 9 -13 18 -30z m80 -151 c20 -37 16 -43 -73
-106 -53 -39 -61 -48 -47 -56 13 -7 33 2 85 36 69 46 80 48 80 16 0 -12 -18
-28 -52 -45 -29 -15 -98 -52 -153 -84 -186 -106 -215 -121 -215 -116 0 3 20
17 45 32 54 31 58 40 10 20 -111 -47 -217 -87 -220 -84 -6 6 -55 121 -53 123
2 1 24 16 51 34 26 18 47 36 47 41 0 13 -1 13 -45 -6 -20 -8 -39 -13 -42 -10
-3 3 48 32 113 65 66 33 138 72 162 86 61 38 52 25 -18 -24 -33 -23 -60 -44
-60 -47 0 -5 134 65 188 99 40 26 42 26 42 7 0 -11 2 -20 5 -20 2 0 33 16 67
35 35 19 64 35 65 35 1 0 10 -14 18 -31z m79 -195 c4 -14 2 -32 -3 -38 -6 -7
-9 -16 -6 -19 3 -4 2 -5 -2 -2 -3 3 -20 -6 -37 -19 -26 -19 -89 -45 -156 -63
-8 -2 23 16 70 41 47 25 82 45 79 45 -6 1 -167 -59 -317 -118 -29 -12 -60 -21
-69 -21 -21 0 68 54 266 161 152 82 163 84 175 33z m-2164 -63 c0 -6 -48 -43
-107 -83 -198 -136 -357 -250 -427 -307 -109 -89 -126 -98 -51 -26 39 37 57
59 40 48 -72 -46 -105 -64 -105 -55 0 8 202 163 313 242 12 8 -12 -18 -53 -59
-85 -83 -62 -70 62 36 73 63 299 212 321 213 4 0 7 -4 7 -9z m2210 -94 c0 -7
-40 -33 -88 -59 -48 -26 -179 -101 -292 -167 -192 -112 -205 -118 -213 -99 -4
12 -4 25 0 29 18 17 297 176 431 246 135 70 162 78 162 50z m10 -42 c0 -8 -31
-36 -70 -61 -38 -26 -70 -49 -70 -51 0 -2 30 12 68 32 l67 37 -35 -32 c-19
-17 -27 -28 -17 -24 30 11 19 -5 -22 -32 -22 -14 -44 -24 -48 -21 -9 6 -43
-16 -46 -30 -1 -4 -7 -7 -14 -7 -7 1 -11 -3 -10 -9 1 -6 -82 -67 -185 -136
-103 -69 -185 -127 -183 -129 2 -2 41 18 87 46 127 76 258 145 258 135 -1 -16
-92 -76 -220 -144 -72 -38 -133 -69 -135 -69 -2 0 -4 8 -3 18 0 9 -3 33 -6 52
l-6 35 110 69 c60 37 110 70 110 73 0 2 -15 -4 -32 -15 -112 -67 -182 -102
-191 -93 -23 23 11 51 170 141 216 121 345 192 358 194 32 6 55 19 50 27 -4 5
-1 9 4 9 6 0 11 -7 11 -15z m-2227 -162 c-4 -2 -145 -87 -313 -189 -168 -102
-311 -188 -317 -191 -8 -3 -13 2 -13 13 1 22 16 31 385 255 234 142 260 156
263 136 2 -12 0 -23 -5 -24z m2238 -53 c-13 -11 -18 -20 -13 -20 6 0 14 5 17
10 8 12 25 13 25 2 0 -5 -10 -14 -22 -20 l-23 -11 25 -1 25 -1 -28 -17 c-25
-15 -28 -22 -25 -60 l3 -43 -92 -50 c-51 -27 -93 -48 -93 -45 0 2 27 22 60 45
34 22 59 42 58 45 -2 3 6 12 17 21 11 9 4 8 -15 -4 -19 -11 -47 -27 -62 -36
-15 -8 -55 -18 -89 -22 l-62 -6 31 45 c24 35 58 62 149 116 117 70 159 89 114
52z m-2231 -37 c0 -25 -13 -36 -118 -98 -172 -103 -292 -181 -287 -187 5 -5
-163 -144 -205 -171 -26 -16 62 62 118 105 53 41 66 64 18 33 -14 -10 -26 -15
-26 -12 0 12 477 355 498 357 1 0 2 -12 2 -27z m0 -120 c0 -12 -72 -63 -219
-156 -196 -124 -284 -183 -241 -161 14 7 385 237 437 271 20 13 22 13 20 -6 0
-11 -4 -18 -8 -15 -8 4 -124 -69 -134 -86 -4 -6 27 7 69 30 l76 42 0 -26 c0
-14 -4 -27 -10 -27 -5 -1 -14 -2 -18 -3 -12 -2 -472 -276 -472 -281 0 -9 50
15 139 65 50 28 95 49 100 45 5 -3 13 0 17 6 4 8 3 9 -4 5 -7 -4 -12 -5 -12
-3 0 3 41 29 90 58 50 29 90 57 90 62 0 4 5 5 10 2 6 -3 13 1 16 9 3 9 10 14
14 11 5 -3 11 -1 15 5 13 21 25 9 25 -24 0 -30 -7 -39 -52 -72 -29 -21 -64
-49 -78 -63 -24 -23 -23 -23 27 4 28 16 50 33 47 37 -5 8 28 28 45 28 6 0 11
-12 11 -28 0 -25 -13 -34 -152 -112 -151 -83 -209 -120 -401 -254 l-97 -68 2
47 c1 37 6 50 27 65 80 59 100 76 101 87 0 10 63 53 78 53 4 0 -9 -14 -28 -31
-19 -17 -28 -27 -20 -23 24 11 60 46 55 54 -2 4 34 35 80 69 47 35 85 65 85
67 0 7 -6 3 -142 -88 -65 -43 -118 -82 -118 -87 0 -12 -94 -68 -108 -63 -8 2
-12 27 -12 71 l0 67 68 60 c163 144 270 219 447 311 66 34 123 63 128 63 4 0
7 -8 7 -17z m1912 -44 c-9 -23 -41 -68 -71 -100 -51 -56 -58 -75 -17 -44 11 8
26 15 33 15 28 0 -39 -110 -122 -200 l-50 -54 40 28 c22 16 59 47 83 70 23 22
42 36 42 32 0 -20 -45 -79 -93 -123 -58 -52 -51 -48 41 21 48 37 63 44 68 32
6 -17 -10 -51 -39 -83 -11 -13 -16 -23 -12 -23 5 0 -32 -27 -83 -60 -51 -33
-94 -60 -95 -60 -2 0 -4 14 -5 31 -2 24 5 38 35 66 21 20 27 29 13 20 -13 -10
-28 -17 -33 -17 -5 0 -5 42 -2 93 7 84 9 94 34 112 38 28 202 198 196 203 -2
3 -52 -23 -111 -57 -58 -35 -108 -60 -110 -58 -7 7 249 196 268 197 3 0 -1
-19 -10 -41z m368 -54 c0 -8 -9 -19 -20 -25 -11 -6 -18 -15 -15 -20 3 -4 0
-11 -5 -13 -7 -4 -6 -5 0 -3 7 1 11 5 10 10 -2 9 19 26 33 26 4 0 7 -8 7 -18
0 -11 -14 -25 -35 -35 -22 -10 -35 -24 -35 -35 0 -21 -120 -82 -237 -121 -88
-30 -106 -27 -65 8 20 17 30 34 27 43 -4 10 10 22 46 39 29 13 55 24 59 24 3
0 31 16 61 36 154 103 169 110 169 84z m-79 -197 c-4 -13 -23 -32 -42 -43 -19
-11 -59 -39 -89 -61 -31 -23 -75 -51 -98 -63 -24 -12 -40 -26 -37 -31 6 -9
-123 -105 -217 -162 -32 -19 -55 -38 -50 -43 4 -5 1 -5 -5 -1 -7 4 -22 2 -33
-4 -11 -6 -20 -7 -20 -3 0 4 24 21 53 36 76 42 268 169 263 175 -3 2 -22 -6
-43 -18 -64 -39 -249 -133 -238 -122 6 5 51 32 100 60 50 27 162 99 250 159
163 111 208 142 212 142 1 1 -1 -9 -6 -21z m82 -58 c-12 -11 -363 -192 -363
-187 0 2 28 24 63 48 34 24 116 84 182 133 l120 89 3 -38 c2 -21 0 -41 -5 -45z
m-2324 -113 l-44 -39 40 26 c24 16 41 22 44 15 5 -15 -4 -21 -79 -59 -66 -34
-170 -100 -170 -108 0 -2 10 2 23 10 45 29 157 90 157 85 0 -11 -225 -131
-242 -130 -10 1 -16 -2 -14 -6 3 -4 -11 -5 -30 -2 -19 3 -35 9 -34 14 0 4 0
16 0 27 0 47 85 105 290 196 80 35 96 39 99 26 2 -10 -14 -32 -40 -55z m2325
18 c-4 -8 -9 -15 -13 -15 -3 0 -78 -43 -166 -96 -88 -53 -223 -133 -300 -177
-77 -44 -161 -93 -187 -108 -36 -21 -48 -24 -48 -14 0 8 4 15 9 15 4 0 80 45
167 101 274 174 435 270 444 264 5 -3 27 6 47 20 43 29 55 31 47 10z m-119 -3
c-6 -5 -63 -42 -128 -82 -65 -39 -126 -80 -135 -90 -30 -32 -310 -206 -317
-198 -1 2 1 12 5 23 8 21 31 36 364 232 196 115 234 136 211 115z m115 -70 c0
-5 -152 -96 -337 -202 -186 -106 -353 -202 -370 -212 -22 -13 -31 -15 -28 -6
3 7 47 38 98 68 163 97 622 359 630 360 4 0 7 -4 7 -8z m-50 -180 c0 -4 -10
-14 -22 -21 -291 -183 -698 -421 -698 -407 0 2 51 35 113 74 61 38 135 84 162
102 83 53 429 259 438 260 4 0 7 -3 7 -8z m-25 -183 c-3 -8 -74 -49 -159 -92
-84 -43 -200 -108 -258 -146 -91 -59 -635 -386 -663 -398 -13 -6 7 11 98 81
42 32 77 61 77 63 0 5 0 5 -95 -54 -60 -38 -64 -39 -30 -11 22 18 79 68 127
111 87 77 193 149 298 202 60 29 58 26 -10 -26 -25 -18 -72 -56 -106 -84 -33
-27 -74 -60 -90 -72 -16 -13 18 5 76 39 414 241 728 414 736 405 3 -2 2 -10
-1 -18z m-2385 -140 c-111 -67 -212 -123 -335 -188 l-100 -52 45 41 c25 23 75
59 112 82 66 39 333 166 353 167 6 1 -28 -22 -75 -50z m2376 12 c-12 -18 -274
-186 -366 -234 -103 -54 -111 -50 -16 7 33 20 57 36 54 36 -4 0 -44 -16 -89
-35 -46 -19 -86 -35 -89 -35 -3 0 72 40 165 89 94 49 206 109 250 135 80 45
101 54 91 37z m-2196 -55 c0 -8 -9 -17 -19 -21 -11 -3 -25 -13 -33 -22 -14
-18 -14 -18 38 3 12 5 14 1 12 -19 -2 -15 -8 -30 -13 -34 -4 -5 -5 -1 0 7 5 8
5 12 1 8 -4 -3 -8 -10 -8 -15 0 -12 -19 -33 -30 -33 -6 0 -4 8 3 17 8 10 -8
-1 -36 -23 -27 -23 -77 -56 -110 -74 -33 -18 -65 -38 -70 -45 -9 -10 -18 -10
-49 0 -21 8 -46 11 -55 7 -12 -5 -8 -8 14 -13 l30 -7 -35 0 c-19 0 -46 -3 -60
-7 -18 -4 -14 0 14 17 21 13 58 40 83 60 24 21 56 41 71 44 31 8 102 42 102
50 0 2 -10 -1 -22 -7 -40 -20 -7 7 77 65 88 60 95 63 95 42z m-310 -71 c0 -2
-13 -11 -30 -20 -16 -8 -29 -19 -27 -24 2 -8 -108 -93 -220 -169 l-63 -43 0
56 c0 38 4 55 13 55 7 0 82 33 167 74 180 86 160 77 160 71z m310 -123 c0 -4
-32 -27 -70 -51 -39 -23 -68 -46 -65 -51 3 -4 -3 -7 -13 -6 -9 0 -16 -4 -15
-11 2 -7 -3 -10 -10 -7 -14 5 -226 -138 -369 -248 -113 -87 -108 -85 -108 -46
0 32 8 40 133 130 72 53 152 111 177 129 30 22 39 26 26 11 -11 -12 -15 -22
-9 -22 9 0 238 131 283 163 26 18 40 22 40 9z m2059 -119 l-54 -108 -195 -98
c-162 -81 -188 -92 -155 -63 22 20 43 35 47 36 4 0 5 7 1 16 -4 12 -2 15 8 12
8 -3 13 -11 11 -18 -3 -11 0 -11 13 0 22 18 5 32 -46 39 l-42 6 64 44 c35 24
69 49 74 56 6 7 60 41 120 77 166 98 200 117 204 112 2 -2 -20 -52 -50 -111z
m-359 90 c0 -1 -66 -44 -147 -96 -336 -215 -555 -337 -730 -406 -57 -23 -106
-41 -110 -41 -42 0 624 416 697 435 25 7 77 28 115 47 39 20 85 39 103 43 18
3 30 10 28 13 -2 4 7 7 20 7 13 0 24 -1 24 -2z m-2020 -66 c-114 -102 -147
-122 -277 -168 l-53 -18 0 34 c0 32 4 37 62 66 54 27 247 97 273 99 5 0 3 -6
-5 -13z m320 -36 c0 -37 -3 -41 -67 -84 -75 -49 -122 -74 -209 -111 l-59 -26
80 76 c71 67 228 183 248 184 4 0 7 -18 7 -39z m1754 -12 c-49 -51 -196 -145
-409 -261 l-70 -38 49 44 c26 24 107 79 180 122 72 42 163 96 201 120 39 23
72 43 74 43 3 1 -8 -13 -25 -30z m-2012 -96 c-72 -71 -142 -160 -142 -180 0
-10 6 -12 23 -8 46 14 0 -14 -126 -79 -71 -36 -133 -66 -138 -66 -5 0 -9 24
-9 53 l0 54 78 55 c140 101 338 224 365 227 4 1 -19 -25 -51 -56z m239 -62
c-26 -36 -26 -45 -1 -38 25 6 27 -19 3 -45 -15 -17 -15 -18 18 -12 41 8 46 14
-108 -115 -132 -110 -167 -147 -55 -58 80 64 105 79 75 46 -12 -13 -22 -28
-22 -32 0 -9 -172 -127 -226 -154 -16 -9 -50 -33 -75 -54 -25 -21 -56 -47 -70
-59 -29 -23 48 21 345 198 221 132 242 144 210 117 -40 -33 -419 -270 -428
-267 -11 3 -187 -115 -210 -142 -10 -11 -16 -14 -12 -6 4 8 -3 3 -16 -11 -59
-64 -59 -65 -59 80 l0 132 48 20 c26 12 64 23 85 26 49 7 35 22 -29 31 l-49 7
145 98 c80 53 213 146 295 206 140 102 150 108 153 85 2 -13 -6 -37 -17 -53z
m1068 35 c-2 -2 -83 -56 -179 -121 -96 -64 -182 -124 -190 -132 -9 -10 -3 -8
15 4 17 11 102 62 190 113 88 51 170 100 183 108 12 8 22 12 22 8 0 -12 -238
-164 -339 -217 -102 -53 -168 -105 -168 -133 0 -8 6 -12 15 -9 9 4 10 8 3 12
-6 4 9 17 34 29 53 26 67 28 39 7 -17 -13 -16 -14 16 -5 46 13 49 12 25 -6
-44 -34 -161 -86 -311 -138 -212 -73 -210 -73 -119 -27 61 31 72 39 45 35
l-35 -6 20 22 c38 43 227 185 303 228 42 24 122 72 177 107 55 35 125 72 156
83 31 11 65 25 75 31 19 10 31 14 23 7z m583 -116 c-25 -21 -320 -211 -387
-249 l-40 -23 45 42 45 42 -42 -32 c-24 -17 -47 -29 -52 -26 -5 4 -11 -6 -13
-21 -2 -19 -10 -29 -23 -31 -16 -3 -18 -1 -7 9 6 7 12 23 12 35 0 12 9 33 20
47 12 15 20 28 18 29 -7 8 114 108 131 108 11 0 50 16 88 36 60 32 65 33 45
12 -12 -14 -20 -27 -16 -30 3 -4 -3 -11 -14 -17 -11 -6 -21 -8 -24 -6 -2 3
-29 -21 -59 -52 -49 -51 -50 -54 -14 -27 63 47 93 65 200 121 110 57 121 62
87 33z m-1222 -14 c0 -2 -53 -36 -117 -76 -127 -79 -461 -300 -660 -437 -68
-46 -123 -82 -123 -80 0 3 70 58 155 122 85 65 155 120 155 123 0 2 -8 1 -17
-2 -11 -4 -8 2 7 14 56 45 306 219 398 276 86 55 103 62 150 63 28 0 52 -1 52
-3z m720 -200 c0 -12 -201 -116 -212 -110 -7 5 -8 3 -4 -5 5 -8 3 -12 -5 -10
-26 3 -40 -1 -34 -10 6 -10 -75 -51 -110 -56 -11 -1 -24 -3 -30 -4 -5 -1 -3
-6 5 -12 12 -9 12 -10 -3 -5 -10 3 -28 1 -39 -5 -15 -8 -19 -8 -14 0 12 19 -3
12 -54 -26 -57 -42 -65 -61 -17 -38 34 17 33 15 -28 -31 -18 -14 -18 -14 5 -1
123 70 209 117 215 117 4 0 1 -8 -6 -17 -9 -12 -5 -11 11 3 32 27 117 84 125
84 3 0 4 -4 0 -9 -3 -5 9 -20 26 -34 l31 -24 -30 -22 c-50 -35 -250 -120 -286
-121 -6 0 3 14 20 31 23 25 17 23 -31 -13 -33 -25 -96 -69 -140 -97 -68 -43
-87 -51 -128 -51 -27 0 -46 4 -43 8 6 10 -21 8 -45 -2 -9 -4 -53 -6 -98 -4
l-83 3 64 47 c34 25 88 69 118 97 l55 51 -90 -47 c-49 -25 -132 -70 -183 -100
-55 -32 -102 -53 -115 -51 -17 2 1 16 70 56 109 63 290 149 325 156 14 2 43
13 64 24 55 28 268 112 284 112 7 0 -12 -19 -42 -42 -70 -55 -218 -180 -218
-184 0 -2 52 32 116 76 64 44 120 77 125 74 9 -5 136 82 180 123 l27 25 18
-25 19 -24 39 25 c33 20 135 72 144 72 1 0 2 -2 2 -4z"/>
<path d="M2215 4190 c-69 -25 -163 -70 -275 -130 -52 -29 -89 -45 -82 -37 26
31 -13 25 -88 -14 -41 -21 -71 -38 -67 -39 4 0 30 11 57 25 27 14 53 25 57 25
4 0 -68 -40 -162 -88 -93 -48 -183 -97 -200 -107 -16 -11 -26 -14 -22 -7 5 6
6 12 4 12 -18 0 -222 -122 -227 -135 -3 -10 -19 -24 -36 -31 l-29 -14 30 6
c17 4 48 7 70 8 38 2 99 27 107 44 1 4 44 24 93 45 89 38 309 160 321 178 3 5
94 54 202 108 168 84 295 152 311 167 8 8 -15 2 -64 -16z"/>
<path d="M2805 4013 c-93 -21 -237 -78 -375 -149 -91 -47 -169 -89 -174 -94
-5 -5 123 47 285 116 282 119 337 141 276 108 -16 -9 -26 -18 -23 -21 9 -9 57
27 51 37 -6 10 -7 10 -40 3z"/>
</g>
</svg>
